<svg xmlns="http://www.w3.org/2000/svg" width="1280" height="182" viewBox="0 0 1280 182" font-family="Liberation Sans,Arial,sans-serif" role="img" aria-label="Transmitting — always shipping. Tuning across live ventures: Cura, Let's Chat, davidrussell.co, ScamCapital, Computer Input."><defs><linearGradient id="bgL" x1="0" y1="0" x2="0.3" y2="1"><stop offset="0" stop-color="#10173A"/><stop offset="0.6" stop-color="#0A0E1C"/><stop offset="1" stop-color="#080B16"/></linearGradient><linearGradient id="scan" x1="0" y1="0" x2="1" y2="0"><stop offset="0" stop-color="#8E99FF" stop-opacity="0"/><stop offset="0.5" stop-color="#8E99FF" stop-opacity="0.5"/><stop offset="1" stop-color="#8E99FF" stop-opacity="0"/></linearGradient><radialGradient id="pg" cx="0.5" cy="0.5" r="0.5"><stop offset="0" stop-color="#FF6A3D"/><stop offset="0.5" stop-color="#FF6A3D" stop-opacity="0.5"/><stop offset="1" stop-color="#FF6A3D" stop-opacity="0"/></radialGradient><radialGradient id="gg" cx="0.5" cy="0.5" r="0.5"><stop offset="0" stop-color="#36C28B"/><stop offset="0.5" stop-color="#36C28B" stop-opacity="0.5"/><stop offset="1" stop-color="#36C28B" stop-opacity="0"/></radialGradient><filter id="gr"><feTurbulence type="fractalNoise" baseFrequency="0.9" numOctaves="2" stitchTiles="stitch" result="n"/><feColorMatrix in="n" type="matrix" values="0 0 0 0 0 0 0 0 0 0 0 0 0 0 0 0 0 0 0.6 0"/></filter><filter id="soft" x="-50%" y="-50%" width="200%" height="200%"><feGaussianBlur stdDeviation="3"/></filter><path id="wave" d="M404,70.1 L410,69.3 L416,70.3 L422,73.2 L428,68.9 L434,66.2 L440,72.6 L446,75.6 L452,72.4 L458,73.4 L464,71.8 L470,59.9 L476,52.1 L482,53.5 L488,51.3 L494,49.8 L500,58.0 L506,61.7 L512,55.4 L518,55.1 L524,59.3 L530,57.0 L536,60.5 L542,75.1 L548,81.7 L554,79.5 L560,82.6 L566,80.9 L572,68.1 L578,63.9 L584,69.2 L590,66.3 L596,62.6 L602,67.0 L608,61.6 L614,46.2 L620,42.6 L626,45.3 L632,42.1 L638,48.3 L644,65.1 L650,69.2 L656,65.5 L662,71.0 L668,72.2 L674,65.2 L680,71.7 L686,85.6 L692,85.2 L698,82.4 L704,85.1 L710,74.0 L716,55.1 L722,52.2 L728,54.0 L734,47.7 L740,50.8 L746,60.4 L752,53.6 L758,43.5 L764,47.6 L770,49.5 L776,47.8 L782,62.7 L788,81.0 L794,81.8 L800,81.6 L806,86.8 L812,78.4 L818,67.0 L824,73.1 L830,78.6 L836,72.0 L842,72.1 L848,73.0 L854,56.3 L860,41.3 L866,42.9 L872,42.0 L878,39.6 L884,52.8 L890,64.6 L896,59.7 L902,58.7 L908,65.4 L914,62.5 L920,62.2 L926,78.1 L932,88.0 L938,84.5 L944,85.9 L950,84.8 L956,68.7 L962,58.2 L968,61.9 L974,59.8 L980,55.0 L986,60.9 L992,61.0 L998,47.9 L1004,43.4 L1010,47.8 L1016,46.0 L1022,50.1 L1028,66.7 L1034,74.5 L1040,71.8 L1046,75.2 L1052,76.8 L1058,68.7 L1064,68.6 L1070,77.8 L1076,78.0 L1082,74.1 L1088,76.0 L1094,70.1 L1100,55.6 L1106,51.0 L1112,53.0 L1118,49.7 L1124,51.5 L1130,60.5 L1136,60.6 L1142,55.2 L1148,57.5 L1154,60.0 L1160,57.9 L1166,64.1 L1172,75.0 L1178,76.7 L1184,75.3 L1190,77.5 L1196,73.3 L1202,64.8 L1208,64.8" fill="none"/></defs><style>@keyframes tune{0%{transform:translateX(0px)}8%{transform:translateX(0px)}20%{transform:translateX(182px)}28%{transform:translateX(182px)}40%{transform:translateX(364px)}48%{transform:translateX(364px)}60%{transform:translateX(546px)}68%{transform:translateX(546px)}80%{transform:translateX(728px)}100%{transform:translateX(728px)}}.ind{animation:tune 12s ease-in-out infinite alternate}@keyframes scanmove{0%{transform:translateX(-30%)}100%{transform:translateX(120%)}}.scan{animation:scanmove 6s linear infinite}@keyframes blip{0%,100%{opacity:.4}50%{opacity:1}}.live{animation:blip 2.4s ease-in-out infinite}@media(prefers-reduced-motion:reduce){.ind,.scan,.live{animation:none}}</style><rect width="1280" height="182" rx="20" fill="url(#bgL)"/><rect x="1" y="1" width="1278" height="180" rx="19" fill="none" stroke="#2f2bf0" stroke-width="1.1" opacity="0.3"/><circle class="live" cx="54" cy="46" r="11" fill="url(#gg)"/><circle cx="54" cy="46" r="4.5" fill="#36C28B"/><path transform="translate(74.00,51.00) scale(0.00684,-0.00684)" d="M762 1121V0H467V1121H61V1349H1168V1121Z" fill="#8E99FF"/><path transform="translate(85.40,51.00) scale(0.00684,-0.00684)" d="M895 0 605 515H432V0H137V1349H631Q895 1349 1026 1246Q1157 1143 1157 949Q1157 875 1136 815Q1115 755 1078 710Q1041 664 990 632Q939 599 878 581L1227 0ZM860 937Q860 988 842 1023Q825 1058 792 1080Q759 1101 710 1110Q662 1120 600 1120H432V744H608Q740 744 800 794Q860 843 860 937Z" fill="#8E99FF"/><path transform="translate(96.80,51.00) scale(0.00684,-0.00684)" d="M1229 0H935L843 330H387L295 0H0L443 1349H787ZM615 1167Q613 1157 608 1132Q602 1107 594 1075Q586 1043 576 1006Q567 968 557 932L449 552H781L673 932Q663 968 654 1006Q644 1043 636 1075Q628 1107 622 1132Q617 1157 615 1167Z" fill="#8E99FF"/><path transform="translate(108.20,51.00) scale(0.00684,-0.00684)" d="M748 0 364 1010Q372 938 378 872Q381 844 384 814Q386 784 388 756Q390 727 391 702Q392 676 392 656V0H135V1349H472L865 312Q857 379 851 445Q846 502 842 564Q837 627 837 677V1349H1094V0Z" fill="#8E99FF"/><path transform="translate(119.61,51.00) scale(0.00684,-0.00684)" d="M1165 391Q1165 303 1131 228Q1097 152 1028 97Q959 42 855 11Q751 -20 611 -20Q376 -20 228 79Q80 178 38 367L323 404Q346 310 419 256Q492 201 619 201Q679 201 726 210Q774 219 808 239Q842 259 860 292Q878 326 878 374Q878 428 846 462Q815 497 766 520Q718 542 659 556Q600 571 545 586Q498 599 446 614Q395 630 346 652Q297 674 253 704Q209 733 176 774Q143 815 124 868Q104 922 104 991Q104 1089 146 1160Q189 1232 260 1278Q331 1325 423 1348Q515 1370 615 1370Q839 1370 965 1282Q1091 1193 1128 1007L842 978Q820 1069 763 1115Q706 1161 609 1161Q546 1161 504 1148Q463 1136 438 1114Q412 1093 402 1066Q391 1038 391 1008Q391 960 416 928Q441 897 482 876Q522 855 574 840Q627 826 681 812Q734 799 790 782Q846 766 900 744Q954 721 1002 690Q1050 660 1086 618Q1122 576 1144 520Q1165 464 1165 391Z" fill="#8E99FF"/><path transform="translate(131.01,51.00) scale(0.00684,-0.00684)" d="M908 0V868Q908 919 910 972Q913 1025 916 1069Q920 1120 924 1169Q910 1100 897 1036Q891 1009 885 980Q879 951 873 924Q867 896 861 872Q855 847 849 828L725 360H507L381 828Q377 843 371 866Q365 889 359 916Q353 943 346 972Q340 1001 334 1029Q320 1095 305 1169Q308 1121 312 1069Q315 1024 317 972Q319 919 319 868V0H99V1349H446L581 850Q589 824 596 785Q602 746 607 709Q613 666 619 619Q625 666 632 709Q638 746 645 784Q652 823 659 849L795 1349H1130V0Z" fill="#8E99FF"/><path transform="translate(142.41,51.00) scale(0.00684,-0.00684)" d="M157 1349H1073V1121H762V228H1073V0H157V228H468V1121H157Z" fill="#8E99FF"/><path transform="translate(153.81,51.00) scale(0.00684,-0.00684)" d="M762 1121V0H467V1121H61V1349H1168V1121Z" fill="#8E99FF"/><path transform="translate(165.21,51.00) scale(0.00684,-0.00684)" d="M762 1121V0H467V1121H61V1349H1168V1121Z" fill="#8E99FF"/><path transform="translate(176.61,51.00) scale(0.00684,-0.00684)" d="M157 1349H1073V1121H762V228H1073V0H157V228H468V1121H157Z" fill="#8E99FF"/><path transform="translate(188.01,51.00) scale(0.00684,-0.00684)" d="M748 0 364 1010Q372 938 378 872Q381 844 384 814Q386 784 388 756Q390 727 391 702Q392 676 392 656V0H135V1349H472L865 312Q857 379 851 445Q846 502 842 564Q837 627 837 677V1349H1094V0Z" fill="#8E99FF"/><path transform="translate(199.42,51.00) scale(0.00684,-0.00684)" d="M1128 185Q1090 153 1040 117Q989 81 926 50Q864 20 791 0Q718 -20 635 -20Q494 -20 390 32Q285 85 216 178Q147 271 114 400Q80 528 80 681Q80 848 113 976Q146 1105 214 1192Q283 1280 388 1325Q493 1370 638 1370Q738 1370 814 1343Q889 1316 944 1266Q1000 1217 1038 1148Q1076 1079 1100 995L826 941Q799 1041 752 1090Q705 1138 641 1138Q569 1138 519 1108Q469 1079 438 1022Q407 964 393 878Q379 793 379 681Q379 458 446 337Q513 216 650 216Q688 216 722 224Q755 233 782 244Q808 256 828 268Q847 281 858 290V525H584V743H1128Z" fill="#8E99FF"/><path transform="translate(40.00,104.00) scale(0.01611,-0.01611)" d="M393 -20Q315 -20 254 2Q192 23 149 64Q106 106 83 167Q60 228 60 306Q60 402 94 468Q127 533 185 574Q243 614 321 632Q399 651 487 652L720 656V711Q720 770 710 810Q699 849 679 874Q659 899 630 910Q600 920 562 920Q527 920 500 913Q472 906 452 888Q432 871 420 842Q407 812 402 767L109 781Q121 852 153 910Q185 969 242 1012Q298 1055 380 1078Q463 1102 574 1102Q675 1102 754 1077Q833 1052 888 1002Q943 953 972 881Q1001 809 1001 714V320Q1001 282 1004 252Q1008 222 1018 202Q1027 181 1044 170Q1062 160 1090 160Q1122 160 1152 166V14Q1127 8 1107 3Q1087 -2 1067 -5Q1047 -8 1024 -10Q1002 -12 972 -12Q866 -12 816 40Q765 92 755 193H749Q693 92 606 36Q518 -20 393 -20ZM720 501 576 499Q531 497 490 492Q450 486 420 468Q389 451 371 418Q353 385 353 328Q353 251 388 214Q424 176 483 176Q537 176 581 199Q625 222 656 260Q686 297 703 346Q720 395 720 446Z" fill="#F6F1E6"/><path transform="translate(57.15,104.00) scale(0.01611,-0.01611)" d="M143 0V1484H424V0Z" fill="#F6F1E6"/><path transform="translate(65.12,104.00) scale(0.01611,-0.01611)" d="M436 255 645 1082H946L1153 255L1337 1082H1597L1313 0H1016L797 882L571 0H274L-6 1082H258Z" fill="#F6F1E6"/><path transform="translate(89.59,104.00) scale(0.01611,-0.01611)" d="M393 -20Q315 -20 254 2Q192 23 149 64Q106 106 83 167Q60 228 60 306Q60 402 94 468Q127 533 185 574Q243 614 321 632Q399 651 487 652L720 656V711Q720 770 710 810Q699 849 679 874Q659 899 630 910Q600 920 562 920Q527 920 500 913Q472 906 452 888Q432 871 420 842Q407 812 402 767L109 781Q121 852 153 910Q185 969 242 1012Q298 1055 380 1078Q463 1102 574 1102Q675 1102 754 1077Q833 1052 888 1002Q943 953 972 881Q1001 809 1001 714V320Q1001 282 1004 252Q1008 222 1018 202Q1027 181 1044 170Q1062 160 1090 160Q1122 160 1152 166V14Q1127 8 1107 3Q1087 -2 1067 -5Q1047 -8 1024 -10Q1002 -12 972 -12Q866 -12 816 40Q765 92 755 193H749Q693 92 606 36Q518 -20 393 -20ZM720 501 576 499Q531 497 490 492Q450 486 420 468Q389 451 371 418Q353 385 353 328Q353 251 388 214Q424 176 483 176Q537 176 581 199Q625 222 656 260Q686 297 703 346Q720 395 720 446Z" fill="#F6F1E6"/><path transform="translate(106.74,104.00) scale(0.01611,-0.01611)" d="M584 241 834 1082H1128L700 -57Q619 -254 532 -336Q437 -425 283 -425Q182 -425 106 -412V-212Q159 -220 202 -220Q244 -220 276 -211Q308 -202 334 -181Q385 -139 426 -37L444 11L16 1082H313Z" fill="#F6F1E6"/><path transform="translate(123.90,104.00) scale(0.01611,-0.01611)" d="M1055 316Q1055 238 1022 176Q990 114 928 70Q866 27 776 4Q686 -20 571 -20Q468 -20 385 -5Q302 10 240 44Q177 79 135 134Q93 189 72 270L319 307Q331 262 352 234Q373 206 404 191Q435 176 476 171Q518 166 571 166Q619 166 660 172Q702 177 732 190Q763 204 780 228Q797 253 797 290Q797 332 772 356Q748 381 706 396Q663 412 606 424Q548 435 483 450Q415 465 349 486Q283 507 231 543Q179 579 147 634Q115 690 115 775Q115 852 145 912Q175 973 233 1016Q291 1058 376 1080Q462 1103 573 1103Q661 1103 737 1086Q813 1070 873 1034Q933 999 974 944Q1014 889 1030 811L781 785Q774 824 756 850Q738 875 712 890Q685 905 650 910Q615 916 573 916Q473 916 423 890Q373 865 373 805Q373 768 394 746Q414 724 452 710Q489 695 540 684Q592 674 653 659Q728 643 800 622Q873 600 930 562Q986 525 1020 466Q1055 407 1055 316Z" fill="#F6F1E6"/><path transform="translate(149.02,104.00) scale(0.01611,-0.01611)" d="M1055 316Q1055 238 1022 176Q990 114 928 70Q866 27 776 4Q686 -20 571 -20Q468 -20 385 -5Q302 10 240 44Q177 79 135 134Q93 189 72 270L319 307Q331 262 352 234Q373 206 404 191Q435 176 476 171Q518 166 571 166Q619 166 660 172Q702 177 732 190Q763 204 780 228Q797 253 797 290Q797 332 772 356Q748 381 706 396Q663 412 606 424Q548 435 483 450Q415 465 349 486Q283 507 231 543Q179 579 147 634Q115 690 115 775Q115 852 145 912Q175 973 233 1016Q291 1058 376 1080Q462 1103 573 1103Q661 1103 737 1086Q813 1070 873 1034Q933 999 974 944Q1014 889 1030 811L781 785Q774 824 756 850Q738 875 712 890Q685 905 650 910Q615 916 573 916Q473 916 423 890Q373 865 373 805Q373 768 394 746Q414 724 452 710Q489 695 540 684Q592 674 653 659Q728 643 800 622Q873 600 930 562Q986 525 1020 466Q1055 407 1055 316Z" fill="#F6F1E6"/><path transform="translate(166.17,104.00) scale(0.01611,-0.01611)" d="M420 866Q477 990 563 1046Q649 1102 768 1102Q866 1102 934 1070Q1001 1038 1044 982Q1086 926 1105 850Q1124 774 1124 686V0H844V606Q844 669 834 722Q824 774 801 812Q778 849 741 870Q704 891 651 891Q600 891 558 868Q517 846 487 804Q457 763 440 706Q424 648 424 579V0H143V1484H424V1079Q424 1047 423 1014Q422 982 420 954Q419 925 418 902Q417 879 416 866Z" fill="#F6F1E6"/><path transform="translate(185.13,104.00) scale(0.01611,-0.01611)" d="M143 1277V1484H424V1277ZM143 0V1082H424V0Z" fill="#F6F1E6"/><path transform="translate(193.10,104.00) scale(0.01611,-0.01611)" d="M1167 546Q1167 423 1142 319Q1118 215 1067 140Q1016 65 938 22Q859 -20 752 -20Q704 -20 656 -10Q609 0 566 22Q523 45 486 82Q450 118 424 172H418Q419 167 420 147Q421 127 422 100Q423 74 424 44Q424 15 424 -10V-425H143V833Q143 916 140 981Q138 1046 135 1082H408Q410 1075 412 1055Q415 1035 416 1009Q418 983 419 955Q420 927 420 906H424Q475 1013 564 1059Q653 1105 770 1105Q873 1105 948 1063Q1023 1021 1072 947Q1120 873 1144 770Q1167 668 1167 546ZM874 546Q874 731 818 820Q762 910 651 910Q609 910 568 892Q526 875 494 832Q461 790 440 718Q420 647 420 538Q420 432 440 362Q460 291 492 249Q525 207 566 190Q607 172 649 172Q703 172 745 194Q787 215 816 260Q844 306 859 377Q874 448 874 546Z" fill="#F6F1E6"/><path transform="translate(212.05,104.00) scale(0.01611,-0.01611)" d="M1167 546Q1167 423 1142 319Q1118 215 1067 140Q1016 65 938 22Q859 -20 752 -20Q704 -20 656 -10Q609 0 566 22Q523 45 486 82Q450 118 424 172H418Q419 167 420 147Q421 127 422 100Q423 74 424 44Q424 15 424 -10V-425H143V833Q143 916 140 981Q138 1046 135 1082H408Q410 1075 412 1055Q415 1035 416 1009Q418 983 419 955Q420 927 420 906H424Q475 1013 564 1059Q653 1105 770 1105Q873 1105 948 1063Q1023 1021 1072 947Q1120 873 1144 770Q1167 668 1167 546ZM874 546Q874 731 818 820Q762 910 651 910Q609 910 568 892Q526 875 494 832Q461 790 440 718Q420 647 420 538Q420 432 440 362Q460 291 492 249Q525 207 566 190Q607 172 649 172Q703 172 745 194Q787 215 816 260Q844 306 859 377Q874 448 874 546Z" fill="#F6F1E6"/><path transform="translate(231.01,104.00) scale(0.01611,-0.01611)" d="M143 1277V1484H424V1277ZM143 0V1082H424V0Z" fill="#F6F1E6"/><path transform="translate(238.98,104.00) scale(0.01611,-0.01611)" d="M844 0V607Q844 670 834 722Q824 775 801 812Q778 850 741 871Q704 892 651 892Q600 892 558 870Q517 847 487 806Q457 764 440 706Q424 649 424 580V0H143V840Q143 875 142 912Q142 949 140 982Q139 1016 138 1042Q137 1069 135 1082H403Q405 1070 407 1044Q409 1017 411 985Q413 953 414 921Q416 889 416 867H420Q477 991 563 1047Q649 1103 768 1103Q866 1103 934 1071Q1001 1039 1044 983Q1086 927 1105 851Q1124 775 1124 687V0Z" fill="#F6F1E6"/><path transform="translate(257.94,104.00) scale(0.01611,-0.01611)" d="M596 -434Q489 -434 408 -412Q326 -391 268 -352Q211 -314 176 -260Q142 -207 129 -143L410 -110Q425 -175 474 -212Q524 -249 604 -249Q654 -249 696 -235Q737 -221 766 -188Q796 -154 812 -99Q829 -44 829 37Q829 65 829 94Q829 123 830 147Q831 175 831 201H829Q780 96 692 49Q603 2 481 2Q378 2 304 42Q229 83 180 156Q131 228 108 328Q84 429 84 550Q84 675 109 776Q134 878 186 951Q237 1024 316 1064Q394 1103 502 1103Q610 1103 696 1057Q781 1011 829 908H834Q834 929 836 956Q837 984 839 1010Q841 1035 844 1055Q846 1075 848 1082H1114Q1112 1046 1110 981Q1108 916 1108 832V33Q1108 -85 1074 -172Q1040 -260 974 -318Q909 -376 814 -405Q718 -434 596 -434ZM831 556Q831 658 811 726Q791 794 759 835Q727 876 686 893Q644 910 602 910Q548 910 506 889Q465 868 436 824Q407 780 392 712Q377 644 377 550Q377 375 433 286Q489 197 600 197Q642 197 684 214Q725 230 758 272Q791 313 811 382Q831 451 831 556Z" fill="#F6F1E6"/><path transform="translate(40.00,134.00) scale(0.00610,-0.00610)" d="M1060 309Q1060 233 1030 172Q1001 111 945 68Q889 26 808 3Q726 -20 621 -20Q527 -20 452 -6Q376 7 319 38Q262 69 224 120Q185 172 167 248L326 279Q338 224 364 192Q391 159 428 142Q466 125 515 120Q564 114 621 114Q679 114 728 122Q778 131 814 152Q850 172 870 204Q891 237 891 285Q891 335 866 366Q840 396 796 417Q752 438 692 453Q631 468 560 487Q496 504 433 524Q370 544 320 576Q271 609 240 659Q210 709 210 786Q210 933 316 1016Q422 1099 623 1099Q702 1099 771 1084Q840 1070 894 1038Q948 1007 984 958Q1021 908 1035 839L873 819Q866 864 843 892Q820 920 786 936Q753 953 711 959Q669 965 623 965Q378 965 378 814Q378 768 400 740Q421 711 460 692Q499 673 553 660Q607 646 672 629Q737 613 806 592Q874 571 930 536Q987 501 1024 446Q1060 392 1060 309Z" fill="#6B76A0"/><path transform="translate(48.50,134.00) scale(0.00610,-0.00610)" d="M1097 542Q1097 400 1064 294Q1030 189 967 119Q904 49 814 14Q723 -20 609 -20Q500 -20 412 14Q323 48 260 118Q198 188 164 294Q130 399 130 542Q130 821 256 962Q383 1102 615 1102Q859 1102 978 963Q1097 824 1097 542ZM908 542Q908 668 886 750Q865 832 826 881Q788 930 735 950Q682 969 618 969Q553 969 498 948Q443 928 404 878Q364 829 342 747Q319 665 319 542Q319 416 342 334Q366 251 406 202Q445 153 498 133Q550 113 607 113Q672 113 728 132Q783 152 823 201Q863 250 886 333Q908 416 908 542Z" fill="#6B76A0"/><path transform="translate(57.00,134.00) scale(0.00610,-0.00610)" d="M736 142H1116V0H134V142H556V1342H267V1484H736Z" fill="#6B76A0"/><path transform="translate(65.50,134.00) scale(0.00610,-0.00610)" d="M1097 542Q1097 400 1064 294Q1030 189 967 119Q904 49 814 14Q723 -20 609 -20Q500 -20 412 14Q323 48 260 118Q198 188 164 294Q130 399 130 542Q130 821 256 962Q383 1102 615 1102Q859 1102 978 963Q1097 824 1097 542ZM908 542Q908 668 886 750Q865 832 826 881Q788 930 735 950Q682 969 618 969Q553 969 498 948Q443 928 404 878Q364 829 342 747Q319 665 319 542Q319 416 342 334Q366 251 406 202Q445 153 498 133Q550 113 607 113Q672 113 728 132Q783 152 823 201Q863 250 886 333Q908 416 908 542Z" fill="#6B76A0"/><path transform="translate(82.51,134.00) scale(0.00610,-0.00610)" d="M496 420V719H731V420Z" fill="#6B76A0"/><path transform="translate(99.51,134.00) scale(0.00610,-0.00610)" d="M1060 309Q1060 233 1030 172Q1001 111 945 68Q889 26 808 3Q726 -20 621 -20Q527 -20 452 -6Q376 7 319 38Q262 69 224 120Q185 172 167 248L326 279Q338 224 364 192Q391 159 428 142Q466 125 515 120Q564 114 621 114Q679 114 728 122Q778 131 814 152Q850 172 870 204Q891 237 891 285Q891 335 866 366Q840 396 796 417Q752 438 692 453Q631 468 560 487Q496 504 433 524Q370 544 320 576Q271 609 240 659Q210 709 210 786Q210 933 316 1016Q422 1099 623 1099Q702 1099 771 1084Q840 1070 894 1038Q948 1007 984 958Q1021 908 1035 839L873 819Q866 864 843 892Q820 920 786 936Q753 953 711 959Q669 965 623 965Q378 965 378 814Q378 768 400 740Q421 711 460 692Q499 673 553 660Q607 646 672 629Q737 613 806 592Q874 571 930 536Q987 501 1024 446Q1060 392 1060 309Z" fill="#6B76A0"/><path transform="translate(108.01,134.00) scale(0.00610,-0.00610)" d="M1097 542Q1097 400 1064 294Q1030 189 967 119Q904 49 814 14Q723 -20 609 -20Q500 -20 412 14Q323 48 260 118Q198 188 164 294Q130 399 130 542Q130 821 256 962Q383 1102 615 1102Q859 1102 978 963Q1097 824 1097 542ZM908 542Q908 668 886 750Q865 832 826 881Q788 930 735 950Q682 969 618 969Q553 969 498 948Q443 928 404 878Q364 829 342 747Q319 665 319 542Q319 416 342 334Q366 251 406 202Q445 153 498 133Q550 113 607 113Q672 113 728 132Q783 152 823 201Q863 250 886 333Q908 416 908 542Z" fill="#6B76A0"/><path transform="translate(116.51,134.00) scale(0.00610,-0.00610)" d="M365 1082V396Q365 317 376 264Q388 211 414 178Q441 146 484 132Q526 119 589 119Q653 119 704 142Q756 164 792 206Q829 249 848 312Q868 374 868 455V1082H1049V231Q1049 197 1050 160Q1050 122 1051 88Q1052 55 1053 31Q1054 7 1055 0H885Q884 5 883 27Q882 49 880 78Q879 106 878 136Q877 165 877 185H874Q848 138 817 100Q786 62 745 36Q704 9 651 -6Q598 -20 528 -20Q438 -20 373 2Q308 24 266 70Q224 116 204 188Q185 261 185 361V1082Z" fill="#6B76A0"/><path transform="translate(125.01,134.00) scale(0.00610,-0.00610)" d="M190 940V1082H360L418 1364H538V1082H970V940H538V288Q538 209 580 171Q623 133 720 133Q760 133 802 136Q845 140 884 145Q924 150 958 156Q993 162 1017 167V30Q995 24 960 16Q925 8 882 1Q838 -6 787 -11Q736 -16 682 -16Q520 -16 439 52Q358 121 358 269V940Z" fill="#6B76A0"/><path transform="translate(133.51,134.00) scale(0.00610,-0.00610)" d="M185 1484H366V1094Q366 1044 363 994Q360 943 357 897H360Q384 944 416 982Q448 1020 489 1046Q530 1073 582 1088Q635 1102 699 1102Q782 1102 847 1080Q912 1058 957 1012Q1002 966 1026 894Q1049 822 1049 721V0H868V695Q868 775 852 826Q835 878 806 908Q776 939 736 951Q696 963 648 963Q589 963 538 940Q486 918 448 876Q409 833 387 770Q365 708 365 627V0H185Z" fill="#6B76A0"/><path transform="translate(150.52,134.00) scale(0.00610,-0.00610)" d="M580 940V0H400V940H138V1082H400V1107Q400 1208 422 1280Q445 1351 495 1396Q545 1442 624 1463Q704 1484 818 1484Q847 1484 887 1482Q927 1481 967 1478Q1007 1475 1042 1471Q1078 1467 1099 1463V1318Q1081 1321 1045 1324Q1009 1327 970 1330Q930 1332 894 1334Q858 1335 839 1335Q773 1335 724 1325Q675 1315 643 1288Q611 1261 596 1214Q580 1167 580 1092V1082H1071V940Z" fill="#6B76A0"/><path transform="translate(159.02,134.00) scale(0.00610,-0.00610)" d="M736 142H1116V0H134V142H556V1342H267V1484H736Z" fill="#6B76A0"/><path transform="translate(167.52,134.00) scale(0.00610,-0.00610)" d="M1097 542Q1097 400 1064 294Q1030 189 967 119Q904 49 814 14Q723 -20 609 -20Q500 -20 412 14Q323 48 260 118Q198 188 164 294Q130 399 130 542Q130 821 256 962Q383 1102 615 1102Q859 1102 978 963Q1097 824 1097 542ZM908 542Q908 668 886 750Q865 832 826 881Q788 930 735 950Q682 969 618 969Q553 969 498 948Q443 928 404 878Q364 829 342 747Q319 665 319 542Q319 416 342 334Q366 251 406 202Q445 153 498 133Q550 113 607 113Q672 113 728 132Q783 152 823 201Q863 250 886 333Q908 416 908 542Z" fill="#6B76A0"/><path transform="translate(176.02,134.00) scale(0.00610,-0.00610)" d="M1045 918Q998 926 946 932Q895 937 833 937Q749 937 682 903Q615 869 569 810Q523 752 498 674Q474 596 474 508V0H294V701Q294 757 288 815Q282 873 274 924Q266 976 257 1017Q248 1058 242 1082H413Q420 1058 428 1027Q435 996 442 962Q449 929 454 895Q459 861 461 832H466Q494 894 525 944Q556 994 598 1029Q641 1064 699 1083Q757 1102 839 1102Q895 1102 949 1097Q1003 1092 1045 1085Z" fill="#6B76A0"/><path transform="translate(184.52,134.00) scale(0.00610,-0.00610)" d="M745 142H1125V0H143V142H565V940H246V1082H745ZM545 1292V1484H745V1292Z" fill="#6B76A0"/><path transform="translate(193.02,134.00) scale(0.00610,-0.00610)" d="M862 174Q813 69 732 22Q651 -26 530 -26Q328 -26 233 113Q138 252 138 532Q138 1098 530 1098Q651 1098 732 1055Q814 1012 863 914H865Q865 919 864 940Q864 961 864 986Q864 1011 864 1034Q863 1056 863 1065V1484H1043V223Q1043 184 1044 148Q1044 112 1045 82Q1046 52 1047 30Q1048 9 1049 0H877Q876 4 874 22Q872 40 870 65Q869 90 868 119Q867 148 867 174ZM324 538Q324 426 338 346Q353 266 384 214Q414 162 462 138Q510 113 577 113Q646 113 700 137Q753 161 790 214Q826 266 844 350Q863 434 863 554Q863 670 844 748Q826 827 790 875Q754 923 701 944Q648 965 579 965Q515 965 467 942Q419 919 388 868Q356 817 340 736Q324 654 324 538Z" fill="#6B76A0"/><path transform="translate(201.52,134.00) scale(0.00610,-0.00610)" d="M1101 111Q1116 111 1131 113Q1146 115 1160 118V6Q1126 -2 1092 -6Q1059 -10 1021 -10Q970 -10 934 4Q897 17 874 44Q851 72 839 112Q827 153 824 207H818Q790 155 756 113Q722 71 678 42Q634 12 577 -4Q520 -20 446 -20Q288 -20 208 66Q128 152 128 302Q128 409 168 478Q207 546 271 585Q335 624 416 640Q498 655 582 656L818 660V719Q818 786 804 833Q791 880 764 909Q736 938 694 952Q652 965 596 965Q546 965 506 958Q465 950 436 930Q407 911 388 878Q370 844 364 793L176 810Q186 874 214 928Q241 981 291 1020Q341 1059 416 1080Q492 1102 599 1102Q799 1102 900 1008Q1000 915 1000 738V272Q1000 192 1021 152Q1042 111 1101 111ZM492 117Q575 117 636 148Q697 180 738 228Q778 276 798 334Q818 392 818 445V534L628 530Q573 529 518 522Q462 514 418 490Q373 466 345 420Q317 375 317 299Q317 217 362 167Q406 117 492 117Z" fill="#6B76A0"/><path transform="translate(218.53,134.00) scale(0.00610,-0.00610)" d="M496 420V719H731V420Z" fill="#6B76A0"/><path transform="translate(235.53,134.00) scale(0.00610,-0.00610)" d="M322 503Q322 418 341 346Q360 275 398 224Q436 172 492 144Q549 115 623 115Q678 115 724 128Q771 140 808 162Q845 184 870 214Q895 245 907 281L1065 236Q1049 191 1017 146Q985 100 932 64Q879 27 803 4Q727 -20 623 -20Q508 -20 417 16Q326 52 263 123Q200 194 166 300Q133 407 133 548Q133 704 172 810Q212 916 279 981Q346 1046 434 1074Q521 1102 617 1102Q748 1102 838 1060Q929 1018 986 942Q1043 867 1068 761Q1094 655 1094 527V503ZM619 969Q573 969 522 954Q472 940 429 903Q386 866 356 802Q327 739 324 641H908Q900 735 874 798Q848 861 810 899Q771 937 722 953Q673 969 619 969Z" fill="#6B76A0"/><path transform="translate(244.03,134.00) scale(0.00610,-0.00610)" d="M715 0H502L69 1082H271L539 378Q547 356 556 324Q565 293 575 259Q585 225 594 194Q602 162 608 141Q614 162 624 194Q633 225 643 258Q653 291 664 322Q674 354 682 376L958 1082H1159Z" fill="#6B76A0"/><path transform="translate(252.53,134.00) scale(0.00610,-0.00610)" d="M322 503Q322 418 341 346Q360 275 398 224Q436 172 492 144Q549 115 623 115Q678 115 724 128Q771 140 808 162Q845 184 870 214Q895 245 907 281L1065 236Q1049 191 1017 146Q985 100 932 64Q879 27 803 4Q727 -20 623 -20Q508 -20 417 16Q326 52 263 123Q200 194 166 300Q133 407 133 548Q133 704 172 810Q212 916 279 981Q346 1046 434 1074Q521 1102 617 1102Q748 1102 838 1060Q929 1018 986 942Q1043 867 1068 761Q1094 655 1094 527V503ZM619 969Q573 969 522 954Q472 940 429 903Q386 866 356 802Q327 739 324 641H908Q900 735 874 798Q848 861 810 899Q771 937 722 953Q673 969 619 969Z" fill="#6B76A0"/><path transform="translate(261.03,134.00) scale(0.00610,-0.00610)" d="M1045 918Q998 926 946 932Q895 937 833 937Q749 937 682 903Q615 869 569 810Q523 752 498 674Q474 596 474 508V0H294V701Q294 757 288 815Q282 873 274 924Q266 976 257 1017Q248 1058 242 1082H413Q420 1058 428 1027Q435 996 442 962Q449 929 454 895Q459 861 461 832H466Q494 894 525 944Q556 994 598 1029Q641 1064 699 1083Q757 1102 839 1102Q895 1102 949 1097Q1003 1092 1045 1085Z" fill="#6B76A0"/><path transform="translate(269.53,134.00) scale(0.00610,-0.00610)" d="M615 -424Q525 -424 456 -405Q388 -386 338 -350Q289 -315 258 -266Q228 -217 215 -157L399 -132Q416 -207 472 -248Q529 -288 621 -288Q678 -288 724 -271Q769 -254 802 -216Q834 -179 852 -119Q869 -59 869 27V221H867Q848 181 818 143Q789 105 748 76Q706 47 651 30Q596 12 524 12Q422 12 350 45Q278 78 232 145Q186 212 164 313Q143 414 143 549Q143 680 164 782Q186 884 234 954Q281 1025 357 1062Q433 1099 543 1099Q656 1099 740 1046Q823 994 868 897H871Q871 922 872 953Q874 984 876 1012Q877 1039 880 1059Q882 1079 883 1082H1054Q1053 1073 1052 1052Q1051 1030 1050 1000Q1049 970 1048 934Q1048 897 1048 858V32Q1048 -195 942 -310Q836 -424 615 -424ZM869 551Q869 664 845 743Q821 822 782 872Q742 921 692 943Q641 965 588 965Q521 965 472 942Q423 920 391 870Q359 821 344 742Q329 664 329 551Q329 434 344 356Q359 278 390 231Q422 184 470 164Q519 145 585 145Q638 145 689 166Q740 188 780 236Q820 284 844 362Q869 439 869 551Z" fill="#6B76A0"/><path transform="translate(278.03,134.00) scale(0.00610,-0.00610)" d="M1045 918Q998 926 946 932Q895 937 833 937Q749 937 682 903Q615 869 569 810Q523 752 498 674Q474 596 474 508V0H294V701Q294 757 288 815Q282 873 274 924Q266 976 257 1017Q248 1058 242 1082H413Q420 1058 428 1027Q435 996 442 962Q449 929 454 895Q459 861 461 832H466Q494 894 525 944Q556 994 598 1029Q641 1064 699 1083Q757 1102 839 1102Q895 1102 949 1097Q1003 1092 1045 1085Z" fill="#6B76A0"/><path transform="translate(286.54,134.00) scale(0.00610,-0.00610)" d="M322 503Q322 418 341 346Q360 275 398 224Q436 172 492 144Q549 115 623 115Q678 115 724 128Q771 140 808 162Q845 184 870 214Q895 245 907 281L1065 236Q1049 191 1017 146Q985 100 932 64Q879 27 803 4Q727 -20 623 -20Q508 -20 417 16Q326 52 263 123Q200 194 166 300Q133 407 133 548Q133 704 172 810Q212 916 279 981Q346 1046 434 1074Q521 1102 617 1102Q748 1102 838 1060Q929 1018 986 942Q1043 867 1068 761Q1094 655 1094 527V503ZM619 969Q573 969 522 954Q472 940 429 903Q386 866 356 802Q327 739 324 641H908Q900 735 874 798Q848 861 810 899Q771 937 722 953Q673 969 619 969Z" fill="#6B76A0"/><path transform="translate(295.04,134.00) scale(0.00610,-0.00610)" d="M322 503Q322 418 341 346Q360 275 398 224Q436 172 492 144Q549 115 623 115Q678 115 724 128Q771 140 808 162Q845 184 870 214Q895 245 907 281L1065 236Q1049 191 1017 146Q985 100 932 64Q879 27 803 4Q727 -20 623 -20Q508 -20 417 16Q326 52 263 123Q200 194 166 300Q133 407 133 548Q133 704 172 810Q212 916 279 981Q346 1046 434 1074Q521 1102 617 1102Q748 1102 838 1060Q929 1018 986 942Q1043 867 1068 761Q1094 655 1094 527V503ZM619 969Q573 969 522 954Q472 940 429 903Q386 866 356 802Q327 739 324 641H908Q900 735 874 798Q848 861 810 899Q771 937 722 953Q673 969 619 969Z" fill="#6B76A0"/><path transform="translate(303.54,134.00) scale(0.00610,-0.00610)" d="M868 0V695Q868 775 852 826Q835 878 806 908Q776 939 736 951Q696 963 648 963Q589 963 538 940Q486 918 448 876Q409 833 387 770Q365 708 365 627V0H185V851Q185 885 184 922Q184 960 183 994Q182 1027 181 1051Q180 1075 179 1082H349Q350 1077 351 1055Q352 1033 354 1004Q355 976 356 946Q357 917 357 897H360Q384 944 416 982Q449 1020 492 1046Q534 1073 587 1088Q640 1102 706 1102Q789 1102 853 1080Q917 1058 960 1012Q1004 966 1026 894Q1049 822 1049 721V0Z" fill="#6B76A0"/><line x1="372" y1="34" x2="372" y2="148" stroke="#2f2bf0" stroke-width="1" opacity="0.25"/><g stroke="#3742B5" stroke-width="1" opacity="0.18"><line x1="404" y1="30" x2="404" y2="98"/><line x1="460" y1="30" x2="460" y2="98"/><line x1="516" y1="30" x2="516" y2="98"/><line x1="572" y1="30" x2="572" y2="98"/><line x1="628" y1="30" x2="628" y2="98"/><line x1="684" y1="30" x2="684" y2="98"/><line x1="740" y1="30" x2="740" y2="98"/><line x1="796" y1="30" x2="796" y2="98"/><line x1="852" y1="30" x2="852" y2="98"/><line x1="908" y1="30" x2="908" y2="98"/><line x1="964" y1="30" x2="964" y2="98"/><line x1="1020" y1="30" x2="1020" y2="98"/><line x1="1076" y1="30" x2="1076" y2="98"/><line x1="1132" y1="30" x2="1132" y2="98"/><line x1="1188" y1="30" x2="1188" y2="98"/><line x1="404" y1="30" x2="1212" y2="30"/><line x1="404" y1="64" x2="1212" y2="64"/><line x1="404" y1="98" x2="1212" y2="98"/></g><path d="M404,70.1 L410,69.3 L416,70.3 L422,73.2 L428,68.9 L434,66.2 L440,72.6 L446,75.6 L452,72.4 L458,73.4 L464,71.8 L470,59.9 L476,52.1 L482,53.5 L488,51.3 L494,49.8 L500,58.0 L506,61.7 L512,55.4 L518,55.1 L524,59.3 L530,57.0 L536,60.5 L542,75.1 L548,81.7 L554,79.5 L560,82.6 L566,80.9 L572,68.1 L578,63.9 L584,69.2 L590,66.3 L596,62.6 L602,67.0 L608,61.6 L614,46.2 L620,42.6 L626,45.3 L632,42.1 L638,48.3 L644,65.1 L650,69.2 L656,65.5 L662,71.0 L668,72.2 L674,65.2 L680,71.7 L686,85.6 L692,85.2 L698,82.4 L704,85.1 L710,74.0 L716,55.1 L722,52.2 L728,54.0 L734,47.7 L740,50.8 L746,60.4 L752,53.6 L758,43.5 L764,47.6 L770,49.5 L776,47.8 L782,62.7 L788,81.0 L794,81.8 L800,81.6 L806,86.8 L812,78.4 L818,67.0 L824,73.1 L830,78.6 L836,72.0 L842,72.1 L848,73.0 L854,56.3 L860,41.3 L866,42.9 L872,42.0 L878,39.6 L884,52.8 L890,64.6 L896,59.7 L902,58.7 L908,65.4 L914,62.5 L920,62.2 L926,78.1 L932,88.0 L938,84.5 L944,85.9 L950,84.8 L956,68.7 L962,58.2 L968,61.9 L974,59.8 L980,55.0 L986,60.9 L992,61.0 L998,47.9 L1004,43.4 L1010,47.8 L1016,46.0 L1022,50.1 L1028,66.7 L1034,74.5 L1040,71.8 L1046,75.2 L1052,76.8 L1058,68.7 L1064,68.6 L1070,77.8 L1076,78.0 L1082,74.1 L1088,76.0 L1094,70.1 L1100,55.6 L1106,51.0 L1112,53.0 L1118,49.7 L1124,51.5 L1130,60.5 L1136,60.6 L1142,55.2 L1148,57.5 L1154,60.0 L1160,57.9 L1166,64.1 L1172,75.0 L1178,76.7 L1184,75.3 L1190,77.5 L1196,73.3 L1202,64.8 L1208,64.8" fill="none" stroke="#8E99FF" stroke-width="3.4" opacity="0.28" filter="url(#soft)"/><path d="M404,70.1 L410,69.3 L416,70.3 L422,73.2 L428,68.9 L434,66.2 L440,72.6 L446,75.6 L452,72.4 L458,73.4 L464,71.8 L470,59.9 L476,52.1 L482,53.5 L488,51.3 L494,49.8 L500,58.0 L506,61.7 L512,55.4 L518,55.1 L524,59.3 L530,57.0 L536,60.5 L542,75.1 L548,81.7 L554,79.5 L560,82.6 L566,80.9 L572,68.1 L578,63.9 L584,69.2 L590,66.3 L596,62.6 L602,67.0 L608,61.6 L614,46.2 L620,42.6 L626,45.3 L632,42.1 L638,48.3 L644,65.1 L650,69.2 L656,65.5 L662,71.0 L668,72.2 L674,65.2 L680,71.7 L686,85.6 L692,85.2 L698,82.4 L704,85.1 L710,74.0 L716,55.1 L722,52.2 L728,54.0 L734,47.7 L740,50.8 L746,60.4 L752,53.6 L758,43.5 L764,47.6 L770,49.5 L776,47.8 L782,62.7 L788,81.0 L794,81.8 L800,81.6 L806,86.8 L812,78.4 L818,67.0 L824,73.1 L830,78.6 L836,72.0 L842,72.1 L848,73.0 L854,56.3 L860,41.3 L866,42.9 L872,42.0 L878,39.6 L884,52.8 L890,64.6 L896,59.7 L902,58.7 L908,65.4 L914,62.5 L920,62.2 L926,78.1 L932,88.0 L938,84.5 L944,85.9 L950,84.8 L956,68.7 L962,58.2 L968,61.9 L974,59.8 L980,55.0 L986,60.9 L992,61.0 L998,47.9 L1004,43.4 L1010,47.8 L1016,46.0 L1022,50.1 L1028,66.7 L1034,74.5 L1040,71.8 L1046,75.2 L1052,76.8 L1058,68.7 L1064,68.6 L1070,77.8 L1076,78.0 L1082,74.1 L1088,76.0 L1094,70.1 L1100,55.6 L1106,51.0 L1112,53.0 L1118,49.7 L1124,51.5 L1130,60.5 L1136,60.6 L1142,55.2 L1148,57.5 L1154,60.0 L1160,57.9 L1166,64.1 L1172,75.0 L1178,76.7 L1184,75.3 L1190,77.5 L1196,73.3 L1202,64.8 L1208,64.8" fill="none" stroke="#8E99FF" stroke-width="1.7"/><circle r="9" fill="url(#pg)"><animateMotion dur="6.5s" repeatCount="indefinite"><mpath href="#wave"/></animateMotion></circle><circle r="3" fill="#FF6A3D"><animateMotion dur="6.5s" repeatCount="indefinite"><mpath href="#wave"/></animateMotion></circle><rect class="scan" x="404" y="30" width="120" height="68" fill="url(#scan)" opacity="0.5"/><line x1="404" y1="150" x2="1212" y2="150" stroke="#2f2bf0" stroke-width="1.4" opacity="0.5"/><line x1="404" y1="146" x2="404" y2="154" stroke="#3742B5" stroke-width="1" opacity="0.4"/><line x1="430" y1="146" x2="430" y2="154" stroke="#3742B5" stroke-width="1" opacity="0.4"/><line x1="456" y1="146" x2="456" y2="154" stroke="#3742B5" stroke-width="1" opacity="0.4"/><line x1="482" y1="146" x2="482" y2="154" stroke="#3742B5" stroke-width="1" opacity="0.4"/><line x1="508" y1="146" x2="508" y2="154" stroke="#3742B5" stroke-width="1" opacity="0.4"/><line x1="534" y1="146" x2="534" y2="154" stroke="#3742B5" stroke-width="1" opacity="0.4"/><line x1="560" y1="146" x2="560" y2="154" stroke="#3742B5" stroke-width="1" opacity="0.4"/><line x1="586" y1="146" x2="586" y2="154" stroke="#3742B5" stroke-width="1" opacity="0.4"/><line x1="612" y1="146" x2="612" y2="154" stroke="#3742B5" stroke-width="1" opacity="0.4"/><line x1="638" y1="146" x2="638" y2="154" stroke="#3742B5" stroke-width="1" opacity="0.4"/><line x1="664" y1="146" x2="664" y2="154" stroke="#3742B5" stroke-width="1" opacity="0.4"/><line x1="690" y1="146" x2="690" y2="154" stroke="#3742B5" stroke-width="1" opacity="0.4"/><line x1="716" y1="146" x2="716" y2="154" stroke="#3742B5" stroke-width="1" opacity="0.4"/><line x1="742" y1="146" x2="742" y2="154" stroke="#3742B5" stroke-width="1" opacity="0.4"/><line x1="768" y1="146" x2="768" y2="154" stroke="#3742B5" stroke-width="1" opacity="0.4"/><line x1="794" y1="146" x2="794" y2="154" stroke="#3742B5" stroke-width="1" opacity="0.4"/><line x1="820" y1="146" x2="820" y2="154" stroke="#3742B5" stroke-width="1" opacity="0.4"/><line x1="846" y1="146" x2="846" y2="154" stroke="#3742B5" stroke-width="1" opacity="0.4"/><line x1="872" y1="146" x2="872" y2="154" stroke="#3742B5" stroke-width="1" opacity="0.4"/><line x1="898" y1="146" x2="898" y2="154" stroke="#3742B5" stroke-width="1" opacity="0.4"/><line x1="924" y1="146" x2="924" y2="154" stroke="#3742B5" stroke-width="1" opacity="0.4"/><line x1="950" y1="146" x2="950" y2="154" stroke="#3742B5" stroke-width="1" opacity="0.4"/><line x1="976" y1="146" x2="976" y2="154" stroke="#3742B5" stroke-width="1" opacity="0.4"/><line x1="1002" y1="146" x2="1002" y2="154" stroke="#3742B5" stroke-width="1" opacity="0.4"/><line x1="1028" y1="146" x2="1028" y2="154" stroke="#3742B5" stroke-width="1" opacity="0.4"/><line x1="1054" y1="146" x2="1054" y2="154" stroke="#3742B5" stroke-width="1" opacity="0.4"/><line x1="1080" y1="146" x2="1080" y2="154" stroke="#3742B5" stroke-width="1" opacity="0.4"/><line x1="1106" y1="146" x2="1106" y2="154" stroke="#3742B5" stroke-width="1" opacity="0.4"/><line x1="1132" y1="146" x2="1132" y2="154" stroke="#3742B5" stroke-width="1" opacity="0.4"/><line x1="1158" y1="146" x2="1158" y2="154" stroke="#3742B5" stroke-width="1" opacity="0.4"/><line x1="1184" y1="146" x2="1184" y2="154" stroke="#3742B5" stroke-width="1" opacity="0.4"/><line x1="1210" y1="146" x2="1210" y2="154" stroke="#3742B5" stroke-width="1" opacity="0.4"/><line x1="452" y1="142" x2="452" y2="158" stroke="#8E99FF" stroke-width="1.6" opacity="0.8"/><circle cx="452" cy="142" r="2.4" fill="#8E99FF"/><path transform="translate(436.20,176.00) scale(0.00610,-0.00610)" d="M130 542Q130 705 173 813Q216 921 286 985Q357 1049 447 1076Q537 1102 632 1102Q730 1102 807 1077Q884 1052 940 1008Q995 965 1030 906Q1065 847 1078 779L886 765Q870 856 806 908Q742 961 624 961Q538 961 480 934Q421 906 386 854Q350 801 334 724Q319 646 319 546Q319 446 334 366Q350 287 386 232Q421 177 480 148Q538 119 623 119Q731 119 802 172Q873 225 890 334L1080 322Q1071 255 1037 193Q1003 131 946 84Q889 37 810 8Q731 -20 631 -20Q494 -20 398 23Q303 66 244 142Q184 217 157 320Q130 422 130 542Z" fill="#AAB2D2"/><path transform="translate(444.10,176.00) scale(0.00610,-0.00610)" d="M365 1082V396Q365 317 376 264Q388 211 414 178Q441 146 484 132Q526 119 589 119Q653 119 704 142Q756 164 792 206Q829 249 848 312Q868 374 868 455V1082H1049V231Q1049 197 1050 160Q1050 122 1051 88Q1052 55 1053 31Q1054 7 1055 0H885Q884 5 883 27Q882 49 880 78Q879 106 878 136Q877 165 877 185H874Q848 138 817 100Q786 62 745 36Q704 9 651 -6Q598 -20 528 -20Q438 -20 373 2Q308 24 266 70Q224 116 204 188Q185 261 185 361V1082Z" fill="#AAB2D2"/><path transform="translate(452.00,176.00) scale(0.00610,-0.00610)" d="M1045 918Q998 926 946 932Q895 937 833 937Q749 937 682 903Q615 869 569 810Q523 752 498 674Q474 596 474 508V0H294V701Q294 757 288 815Q282 873 274 924Q266 976 257 1017Q248 1058 242 1082H413Q420 1058 428 1027Q435 996 442 962Q449 929 454 895Q459 861 461 832H466Q494 894 525 944Q556 994 598 1029Q641 1064 699 1083Q757 1102 839 1102Q895 1102 949 1097Q1003 1092 1045 1085Z" fill="#AAB2D2"/><path transform="translate(459.90,176.00) scale(0.00610,-0.00610)" d="M1101 111Q1116 111 1131 113Q1146 115 1160 118V6Q1126 -2 1092 -6Q1059 -10 1021 -10Q970 -10 934 4Q897 17 874 44Q851 72 839 112Q827 153 824 207H818Q790 155 756 113Q722 71 678 42Q634 12 577 -4Q520 -20 446 -20Q288 -20 208 66Q128 152 128 302Q128 409 168 478Q207 546 271 585Q335 624 416 640Q498 655 582 656L818 660V719Q818 786 804 833Q791 880 764 909Q736 938 694 952Q652 965 596 965Q546 965 506 958Q465 950 436 930Q407 911 388 878Q370 844 364 793L176 810Q186 874 214 928Q241 981 291 1020Q341 1059 416 1080Q492 1102 599 1102Q799 1102 900 1008Q1000 915 1000 738V272Q1000 192 1021 152Q1042 111 1101 111ZM492 117Q575 117 636 148Q697 180 738 228Q778 276 798 334Q818 392 818 445V534L628 530Q573 529 518 522Q462 514 418 490Q373 466 345 420Q317 375 317 299Q317 217 362 167Q406 117 492 117Z" fill="#AAB2D2"/><line x1="634" y1="142" x2="634" y2="158" stroke="#8E99FF" stroke-width="1.6" opacity="0.8"/><circle cx="634" cy="142" r="2.4" fill="#8E99FF"/><path transform="translate(594.49,176.00) scale(0.00610,-0.00610)" d="M736 142H1116V0H134V142H556V1342H267V1484H736Z" fill="#AAB2D2"/><path transform="translate(602.40,176.00) scale(0.00610,-0.00610)" d="M322 503Q322 418 341 346Q360 275 398 224Q436 172 492 144Q549 115 623 115Q678 115 724 128Q771 140 808 162Q845 184 870 214Q895 245 907 281L1065 236Q1049 191 1017 146Q985 100 932 64Q879 27 803 4Q727 -20 623 -20Q508 -20 417 16Q326 52 263 123Q200 194 166 300Q133 407 133 548Q133 704 172 810Q212 916 279 981Q346 1046 434 1074Q521 1102 617 1102Q748 1102 838 1060Q929 1018 986 942Q1043 867 1068 761Q1094 655 1094 527V503ZM619 969Q573 969 522 954Q472 940 429 903Q386 866 356 802Q327 739 324 641H908Q900 735 874 798Q848 861 810 899Q771 937 722 953Q673 969 619 969Z" fill="#AAB2D2"/><path transform="translate(610.30,176.00) scale(0.00610,-0.00610)" d="M190 940V1082H360L418 1364H538V1082H970V940H538V288Q538 209 580 171Q623 133 720 133Q760 133 802 136Q845 140 884 145Q924 150 958 156Q993 162 1017 167V30Q995 24 960 16Q925 8 882 1Q838 -6 787 -11Q736 -16 682 -16Q520 -16 439 52Q358 121 358 269V940Z" fill="#AAB2D2"/><path transform="translate(618.20,176.00) scale(0.00610,-0.00610)" d="M399 862 568 1484H833L522 862Z" fill="#AAB2D2"/><path transform="translate(626.10,176.00) scale(0.00610,-0.00610)" d="M1060 309Q1060 233 1030 172Q1001 111 945 68Q889 26 808 3Q726 -20 621 -20Q527 -20 452 -6Q376 7 319 38Q262 69 224 120Q185 172 167 248L326 279Q338 224 364 192Q391 159 428 142Q466 125 515 120Q564 114 621 114Q679 114 728 122Q778 131 814 152Q850 172 870 204Q891 237 891 285Q891 335 866 366Q840 396 796 417Q752 438 692 453Q631 468 560 487Q496 504 433 524Q370 544 320 576Q271 609 240 659Q210 709 210 786Q210 933 316 1016Q422 1099 623 1099Q702 1099 771 1084Q840 1070 894 1038Q948 1007 984 958Q1021 908 1035 839L873 819Q866 864 843 892Q820 920 786 936Q753 953 711 959Q669 965 623 965Q378 965 378 814Q378 768 400 740Q421 711 460 692Q499 673 553 660Q607 646 672 629Q737 613 806 592Q874 571 930 536Q987 501 1024 446Q1060 392 1060 309Z" fill="#AAB2D2"/><path transform="translate(641.90,176.00) scale(0.00610,-0.00610)" d="M130 542Q130 705 173 813Q216 921 286 985Q357 1049 447 1076Q537 1102 632 1102Q730 1102 807 1077Q884 1052 940 1008Q995 965 1030 906Q1065 847 1078 779L886 765Q870 856 806 908Q742 961 624 961Q538 961 480 934Q421 906 386 854Q350 801 334 724Q319 646 319 546Q319 446 334 366Q350 287 386 232Q421 177 480 148Q538 119 623 119Q731 119 802 172Q873 225 890 334L1080 322Q1071 255 1037 193Q1003 131 946 84Q889 37 810 8Q731 -20 631 -20Q494 -20 398 23Q303 66 244 142Q184 217 157 320Q130 422 130 542Z" fill="#AAB2D2"/><path transform="translate(649.80,176.00) scale(0.00610,-0.00610)" d="M185 1484H366V1094Q366 1044 363 994Q360 943 357 897H360Q384 944 416 982Q448 1020 489 1046Q530 1073 582 1088Q635 1102 699 1102Q782 1102 847 1080Q912 1058 957 1012Q1002 966 1026 894Q1049 822 1049 721V0H868V695Q868 775 852 826Q835 878 806 908Q776 939 736 951Q696 963 648 963Q589 963 538 940Q486 918 448 876Q409 833 387 770Q365 708 365 627V0H185Z" fill="#AAB2D2"/><path transform="translate(657.70,176.00) scale(0.00610,-0.00610)" d="M1101 111Q1116 111 1131 113Q1146 115 1160 118V6Q1126 -2 1092 -6Q1059 -10 1021 -10Q970 -10 934 4Q897 17 874 44Q851 72 839 112Q827 153 824 207H818Q790 155 756 113Q722 71 678 42Q634 12 577 -4Q520 -20 446 -20Q288 -20 208 66Q128 152 128 302Q128 409 168 478Q207 546 271 585Q335 624 416 640Q498 655 582 656L818 660V719Q818 786 804 833Q791 880 764 909Q736 938 694 952Q652 965 596 965Q546 965 506 958Q465 950 436 930Q407 911 388 878Q370 844 364 793L176 810Q186 874 214 928Q241 981 291 1020Q341 1059 416 1080Q492 1102 599 1102Q799 1102 900 1008Q1000 915 1000 738V272Q1000 192 1021 152Q1042 111 1101 111ZM492 117Q575 117 636 148Q697 180 738 228Q778 276 798 334Q818 392 818 445V534L628 530Q573 529 518 522Q462 514 418 490Q373 466 345 420Q317 375 317 299Q317 217 362 167Q406 117 492 117Z" fill="#AAB2D2"/><path transform="translate(665.60,176.00) scale(0.00610,-0.00610)" d="M190 940V1082H360L418 1364H538V1082H970V940H538V288Q538 209 580 171Q623 133 720 133Q760 133 802 136Q845 140 884 145Q924 150 958 156Q993 162 1017 167V30Q995 24 960 16Q925 8 882 1Q838 -6 787 -11Q736 -16 682 -16Q520 -16 439 52Q358 121 358 269V940Z" fill="#AAB2D2"/><line x1="816" y1="142" x2="816" y2="158" stroke="#8E99FF" stroke-width="1.6" opacity="0.8"/><circle cx="816" cy="142" r="2.4" fill="#8E99FF"/><path transform="translate(756.74,176.00) scale(0.00610,-0.00610)" d="M862 174Q813 69 732 22Q651 -26 530 -26Q328 -26 233 113Q138 252 138 532Q138 1098 530 1098Q651 1098 732 1055Q814 1012 863 914H865Q865 919 864 940Q864 961 864 986Q864 1011 864 1034Q863 1056 863 1065V1484H1043V223Q1043 184 1044 148Q1044 112 1045 82Q1046 52 1047 30Q1048 9 1049 0H877Q876 4 874 22Q872 40 870 65Q869 90 868 119Q867 148 867 174ZM324 538Q324 426 338 346Q353 266 384 214Q414 162 462 138Q510 113 577 113Q646 113 700 137Q753 161 790 214Q826 266 844 350Q863 434 863 554Q863 670 844 748Q826 827 790 875Q754 923 701 944Q648 965 579 965Q515 965 467 942Q419 919 388 868Q356 817 340 736Q324 654 324 538Z" fill="#AAB2D2"/><path transform="translate(764.64,176.00) scale(0.00610,-0.00610)" d="M1101 111Q1116 111 1131 113Q1146 115 1160 118V6Q1126 -2 1092 -6Q1059 -10 1021 -10Q970 -10 934 4Q897 17 874 44Q851 72 839 112Q827 153 824 207H818Q790 155 756 113Q722 71 678 42Q634 12 577 -4Q520 -20 446 -20Q288 -20 208 66Q128 152 128 302Q128 409 168 478Q207 546 271 585Q335 624 416 640Q498 655 582 656L818 660V719Q818 786 804 833Q791 880 764 909Q736 938 694 952Q652 965 596 965Q546 965 506 958Q465 950 436 930Q407 911 388 878Q370 844 364 793L176 810Q186 874 214 928Q241 981 291 1020Q341 1059 416 1080Q492 1102 599 1102Q799 1102 900 1008Q1000 915 1000 738V272Q1000 192 1021 152Q1042 111 1101 111ZM492 117Q575 117 636 148Q697 180 738 228Q778 276 798 334Q818 392 818 445V534L628 530Q573 529 518 522Q462 514 418 490Q373 466 345 420Q317 375 317 299Q317 217 362 167Q406 117 492 117Z" fill="#AAB2D2"/><path transform="translate(772.54,176.00) scale(0.00610,-0.00610)" d="M715 0H502L69 1082H271L539 378Q547 356 556 324Q565 293 575 259Q585 225 594 194Q602 162 608 141Q614 162 624 194Q633 225 643 258Q653 291 664 322Q674 354 682 376L958 1082H1159Z" fill="#AAB2D2"/><path transform="translate(780.44,176.00) scale(0.00610,-0.00610)" d="M745 142H1125V0H143V142H565V940H246V1082H745ZM545 1292V1484H745V1292Z" fill="#AAB2D2"/><path transform="translate(788.35,176.00) scale(0.00610,-0.00610)" d="M862 174Q813 69 732 22Q651 -26 530 -26Q328 -26 233 113Q138 252 138 532Q138 1098 530 1098Q651 1098 732 1055Q814 1012 863 914H865Q865 919 864 940Q864 961 864 986Q864 1011 864 1034Q863 1056 863 1065V1484H1043V223Q1043 184 1044 148Q1044 112 1045 82Q1046 52 1047 30Q1048 9 1049 0H877Q876 4 874 22Q872 40 870 65Q869 90 868 119Q867 148 867 174ZM324 538Q324 426 338 346Q353 266 384 214Q414 162 462 138Q510 113 577 113Q646 113 700 137Q753 161 790 214Q826 266 844 350Q863 434 863 554Q863 670 844 748Q826 827 790 875Q754 923 701 944Q648 965 579 965Q515 965 467 942Q419 919 388 868Q356 817 340 736Q324 654 324 538Z" fill="#AAB2D2"/><path transform="translate(796.25,176.00) scale(0.00610,-0.00610)" d="M1045 918Q998 926 946 932Q895 937 833 937Q749 937 682 903Q615 869 569 810Q523 752 498 674Q474 596 474 508V0H294V701Q294 757 288 815Q282 873 274 924Q266 976 257 1017Q248 1058 242 1082H413Q420 1058 428 1027Q435 996 442 962Q449 929 454 895Q459 861 461 832H466Q494 894 525 944Q556 994 598 1029Q641 1064 699 1083Q757 1102 839 1102Q895 1102 949 1097Q1003 1092 1045 1085Z" fill="#AAB2D2"/><path transform="translate(804.15,176.00) scale(0.00610,-0.00610)" d="M365 1082V396Q365 317 376 264Q388 211 414 178Q441 146 484 132Q526 119 589 119Q653 119 704 142Q756 164 792 206Q829 249 848 312Q868 374 868 455V1082H1049V231Q1049 197 1050 160Q1050 122 1051 88Q1052 55 1053 31Q1054 7 1055 0H885Q884 5 883 27Q882 49 880 78Q879 106 878 136Q877 165 877 185H874Q848 138 817 100Q786 62 745 36Q704 9 651 -6Q598 -20 528 -20Q438 -20 373 2Q308 24 266 70Q224 116 204 188Q185 261 185 361V1082Z" fill="#AAB2D2"/><path transform="translate(812.05,176.00) scale(0.00610,-0.00610)" d="M1060 309Q1060 233 1030 172Q1001 111 945 68Q889 26 808 3Q726 -20 621 -20Q527 -20 452 -6Q376 7 319 38Q262 69 224 120Q185 172 167 248L326 279Q338 224 364 192Q391 159 428 142Q466 125 515 120Q564 114 621 114Q679 114 728 122Q778 131 814 152Q850 172 870 204Q891 237 891 285Q891 335 866 366Q840 396 796 417Q752 438 692 453Q631 468 560 487Q496 504 433 524Q370 544 320 576Q271 609 240 659Q210 709 210 786Q210 933 316 1016Q422 1099 623 1099Q702 1099 771 1084Q840 1070 894 1038Q948 1007 984 958Q1021 908 1035 839L873 819Q866 864 843 892Q820 920 786 936Q753 953 711 959Q669 965 623 965Q378 965 378 814Q378 768 400 740Q421 711 460 692Q499 673 553 660Q607 646 672 629Q737 613 806 592Q874 571 930 536Q987 501 1024 446Q1060 392 1060 309Z" fill="#AAB2D2"/><path transform="translate(819.95,176.00) scale(0.00610,-0.00610)" d="M1060 309Q1060 233 1030 172Q1001 111 945 68Q889 26 808 3Q726 -20 621 -20Q527 -20 452 -6Q376 7 319 38Q262 69 224 120Q185 172 167 248L326 279Q338 224 364 192Q391 159 428 142Q466 125 515 120Q564 114 621 114Q679 114 728 122Q778 131 814 152Q850 172 870 204Q891 237 891 285Q891 335 866 366Q840 396 796 417Q752 438 692 453Q631 468 560 487Q496 504 433 524Q370 544 320 576Q271 609 240 659Q210 709 210 786Q210 933 316 1016Q422 1099 623 1099Q702 1099 771 1084Q840 1070 894 1038Q948 1007 984 958Q1021 908 1035 839L873 819Q866 864 843 892Q820 920 786 936Q753 953 711 959Q669 965 623 965Q378 965 378 814Q378 768 400 740Q421 711 460 692Q499 673 553 660Q607 646 672 629Q737 613 806 592Q874 571 930 536Q987 501 1024 446Q1060 392 1060 309Z" fill="#AAB2D2"/><path transform="translate(827.85,176.00) scale(0.00610,-0.00610)" d="M322 503Q322 418 341 346Q360 275 398 224Q436 172 492 144Q549 115 623 115Q678 115 724 128Q771 140 808 162Q845 184 870 214Q895 245 907 281L1065 236Q1049 191 1017 146Q985 100 932 64Q879 27 803 4Q727 -20 623 -20Q508 -20 417 16Q326 52 263 123Q200 194 166 300Q133 407 133 548Q133 704 172 810Q212 916 279 981Q346 1046 434 1074Q521 1102 617 1102Q748 1102 838 1060Q929 1018 986 942Q1043 867 1068 761Q1094 655 1094 527V503ZM619 969Q573 969 522 954Q472 940 429 903Q386 866 356 802Q327 739 324 641H908Q900 735 874 798Q848 861 810 899Q771 937 722 953Q673 969 619 969Z" fill="#AAB2D2"/><path transform="translate(835.75,176.00) scale(0.00610,-0.00610)" d="M736 142H1116V0H134V142H556V1342H267V1484H736Z" fill="#AAB2D2"/><path transform="translate(843.65,176.00) scale(0.00610,-0.00610)" d="M736 142H1116V0H134V142H556V1342H267V1484H736Z" fill="#AAB2D2"/><path transform="translate(851.56,176.00) scale(0.00610,-0.00610)" d="M496 0V299H731V0Z" fill="#AAB2D2"/><path transform="translate(859.46,176.00) scale(0.00610,-0.00610)" d="M130 542Q130 705 173 813Q216 921 286 985Q357 1049 447 1076Q537 1102 632 1102Q730 1102 807 1077Q884 1052 940 1008Q995 965 1030 906Q1065 847 1078 779L886 765Q870 856 806 908Q742 961 624 961Q538 961 480 934Q421 906 386 854Q350 801 334 724Q319 646 319 546Q319 446 334 366Q350 287 386 232Q421 177 480 148Q538 119 623 119Q731 119 802 172Q873 225 890 334L1080 322Q1071 255 1037 193Q1003 131 946 84Q889 37 810 8Q731 -20 631 -20Q494 -20 398 23Q303 66 244 142Q184 217 157 320Q130 422 130 542Z" fill="#AAB2D2"/><path transform="translate(867.36,176.00) scale(0.00610,-0.00610)" d="M1097 542Q1097 400 1064 294Q1030 189 967 119Q904 49 814 14Q723 -20 609 -20Q500 -20 412 14Q323 48 260 118Q198 188 164 294Q130 399 130 542Q130 821 256 962Q383 1102 615 1102Q859 1102 978 963Q1097 824 1097 542ZM908 542Q908 668 886 750Q865 832 826 881Q788 930 735 950Q682 969 618 969Q553 969 498 948Q443 928 404 878Q364 829 342 747Q319 665 319 542Q319 416 342 334Q366 251 406 202Q445 153 498 133Q550 113 607 113Q672 113 728 132Q783 152 823 201Q863 250 886 333Q908 416 908 542Z" fill="#AAB2D2"/><line x1="998" y1="142" x2="998" y2="158" stroke="#8E99FF" stroke-width="1.6" opacity="0.8"/><circle cx="998" cy="142" r="2.4" fill="#8E99FF"/><path transform="translate(954.54,176.00) scale(0.00610,-0.00610)" d="M1060 309Q1060 233 1030 172Q1001 111 945 68Q889 26 808 3Q726 -20 621 -20Q527 -20 452 -6Q376 7 319 38Q262 69 224 120Q185 172 167 248L326 279Q338 224 364 192Q391 159 428 142Q466 125 515 120Q564 114 621 114Q679 114 728 122Q778 131 814 152Q850 172 870 204Q891 237 891 285Q891 335 866 366Q840 396 796 417Q752 438 692 453Q631 468 560 487Q496 504 433 524Q370 544 320 576Q271 609 240 659Q210 709 210 786Q210 933 316 1016Q422 1099 623 1099Q702 1099 771 1084Q840 1070 894 1038Q948 1007 984 958Q1021 908 1035 839L873 819Q866 864 843 892Q820 920 786 936Q753 953 711 959Q669 965 623 965Q378 965 378 814Q378 768 400 740Q421 711 460 692Q499 673 553 660Q607 646 672 629Q737 613 806 592Q874 571 930 536Q987 501 1024 446Q1060 392 1060 309Z" fill="#AAB2D2"/><path transform="translate(962.44,176.00) scale(0.00610,-0.00610)" d="M130 542Q130 705 173 813Q216 921 286 985Q357 1049 447 1076Q537 1102 632 1102Q730 1102 807 1077Q884 1052 940 1008Q995 965 1030 906Q1065 847 1078 779L886 765Q870 856 806 908Q742 961 624 961Q538 961 480 934Q421 906 386 854Q350 801 334 724Q319 646 319 546Q319 446 334 366Q350 287 386 232Q421 177 480 148Q538 119 623 119Q731 119 802 172Q873 225 890 334L1080 322Q1071 255 1037 193Q1003 131 946 84Q889 37 810 8Q731 -20 631 -20Q494 -20 398 23Q303 66 244 142Q184 217 157 320Q130 422 130 542Z" fill="#AAB2D2"/><path transform="translate(970.35,176.00) scale(0.00610,-0.00610)" d="M1101 111Q1116 111 1131 113Q1146 115 1160 118V6Q1126 -2 1092 -6Q1059 -10 1021 -10Q970 -10 934 4Q897 17 874 44Q851 72 839 112Q827 153 824 207H818Q790 155 756 113Q722 71 678 42Q634 12 577 -4Q520 -20 446 -20Q288 -20 208 66Q128 152 128 302Q128 409 168 478Q207 546 271 585Q335 624 416 640Q498 655 582 656L818 660V719Q818 786 804 833Q791 880 764 909Q736 938 694 952Q652 965 596 965Q546 965 506 958Q465 950 436 930Q407 911 388 878Q370 844 364 793L176 810Q186 874 214 928Q241 981 291 1020Q341 1059 416 1080Q492 1102 599 1102Q799 1102 900 1008Q1000 915 1000 738V272Q1000 192 1021 152Q1042 111 1101 111ZM492 117Q575 117 636 148Q697 180 738 228Q778 276 798 334Q818 392 818 445V534L628 530Q573 529 518 522Q462 514 418 490Q373 466 345 420Q317 375 317 299Q317 217 362 167Q406 117 492 117Z" fill="#AAB2D2"/><path transform="translate(978.25,176.00) scale(0.00610,-0.00610)" d="M531 0V686Q531 765 525 818Q519 871 506 904Q492 936 470 950Q449 963 417 963Q384 963 358 938Q332 912 313 866Q294 819 284 754Q274 688 274 607V0H105V851Q105 885 104 922Q104 960 103 994Q102 1027 101 1051Q100 1075 99 1082H248Q249 1077 250 1056Q251 1036 252 1010Q253 983 254 955Q254 927 254 907H256Q269 946 287 982Q305 1017 330 1044Q356 1071 391 1086Q426 1102 472 1102Q560 1102 604 1054Q647 1006 666 906H668Q686 953 708 990Q729 1026 757 1051Q785 1076 821 1089Q857 1102 904 1102Q965 1102 1007 1080Q1049 1058 1075 1012Q1101 966 1112 894Q1124 822 1124 721V0H956V686Q956 765 950 818Q944 871 930 904Q917 936 896 950Q874 963 842 963Q776 963 738 879Q699 795 699 627V0Z" fill="#AAB2D2"/><path transform="translate(986.15,176.00) scale(0.00610,-0.00610)" d="M130 542Q130 705 173 813Q216 921 286 985Q357 1049 447 1076Q537 1102 632 1102Q730 1102 807 1077Q884 1052 940 1008Q995 965 1030 906Q1065 847 1078 779L886 765Q870 856 806 908Q742 961 624 961Q538 961 480 934Q421 906 386 854Q350 801 334 724Q319 646 319 546Q319 446 334 366Q350 287 386 232Q421 177 480 148Q538 119 623 119Q731 119 802 172Q873 225 890 334L1080 322Q1071 255 1037 193Q1003 131 946 84Q889 37 810 8Q731 -20 631 -20Q494 -20 398 23Q303 66 244 142Q184 217 157 320Q130 422 130 542Z" fill="#AAB2D2"/><path transform="translate(994.05,176.00) scale(0.00610,-0.00610)" d="M1101 111Q1116 111 1131 113Q1146 115 1160 118V6Q1126 -2 1092 -6Q1059 -10 1021 -10Q970 -10 934 4Q897 17 874 44Q851 72 839 112Q827 153 824 207H818Q790 155 756 113Q722 71 678 42Q634 12 577 -4Q520 -20 446 -20Q288 -20 208 66Q128 152 128 302Q128 409 168 478Q207 546 271 585Q335 624 416 640Q498 655 582 656L818 660V719Q818 786 804 833Q791 880 764 909Q736 938 694 952Q652 965 596 965Q546 965 506 958Q465 950 436 930Q407 911 388 878Q370 844 364 793L176 810Q186 874 214 928Q241 981 291 1020Q341 1059 416 1080Q492 1102 599 1102Q799 1102 900 1008Q1000 915 1000 738V272Q1000 192 1021 152Q1042 111 1101 111ZM492 117Q575 117 636 148Q697 180 738 228Q778 276 798 334Q818 392 818 445V534L628 530Q573 529 518 522Q462 514 418 490Q373 466 345 420Q317 375 317 299Q317 217 362 167Q406 117 492 117Z" fill="#AAB2D2"/><path transform="translate(1001.95,176.00) scale(0.00610,-0.00610)" d="M1090 546Q1090 423 1070 319Q1050 215 1004 140Q958 65 883 22Q808 -20 698 -20Q643 -20 593 -10Q543 0 500 22Q457 44 424 79Q390 114 367 164H362Q363 162 364 146Q364 131 364 108Q365 85 366 56Q366 27 366 -2V-425H185V858Q185 898 184 935Q184 972 183 1002Q182 1031 181 1052Q180 1073 179 1082H354Q355 1079 356 1060Q358 1042 360 1016Q361 990 362 960Q364 930 364 904H368Q393 956 424 994Q456 1032 496 1056Q536 1081 586 1092Q636 1104 698 1104Q808 1104 883 1064Q958 1024 1004 950Q1050 877 1070 774Q1090 671 1090 546ZM904 546Q904 646 892 724Q880 802 850 856Q821 909 772 937Q724 965 651 965Q592 965 540 946Q488 928 450 880Q411 831 388 745Q366 659 366 524Q366 409 384 330Q403 252 439 204Q475 155 528 134Q581 113 649 113Q722 113 771 142Q820 170 850 225Q879 280 892 361Q904 442 904 546Z" fill="#AAB2D2"/><path transform="translate(1009.85,176.00) scale(0.00610,-0.00610)" d="M745 142H1125V0H143V142H565V940H246V1082H745ZM545 1292V1484H745V1292Z" fill="#AAB2D2"/><path transform="translate(1017.75,176.00) scale(0.00610,-0.00610)" d="M190 940V1082H360L418 1364H538V1082H970V940H538V288Q538 209 580 171Q623 133 720 133Q760 133 802 136Q845 140 884 145Q924 150 958 156Q993 162 1017 167V30Q995 24 960 16Q925 8 882 1Q838 -6 787 -11Q736 -16 682 -16Q520 -16 439 52Q358 121 358 269V940Z" fill="#AAB2D2"/><path transform="translate(1025.65,176.00) scale(0.00610,-0.00610)" d="M1101 111Q1116 111 1131 113Q1146 115 1160 118V6Q1126 -2 1092 -6Q1059 -10 1021 -10Q970 -10 934 4Q897 17 874 44Q851 72 839 112Q827 153 824 207H818Q790 155 756 113Q722 71 678 42Q634 12 577 -4Q520 -20 446 -20Q288 -20 208 66Q128 152 128 302Q128 409 168 478Q207 546 271 585Q335 624 416 640Q498 655 582 656L818 660V719Q818 786 804 833Q791 880 764 909Q736 938 694 952Q652 965 596 965Q546 965 506 958Q465 950 436 930Q407 911 388 878Q370 844 364 793L176 810Q186 874 214 928Q241 981 291 1020Q341 1059 416 1080Q492 1102 599 1102Q799 1102 900 1008Q1000 915 1000 738V272Q1000 192 1021 152Q1042 111 1101 111ZM492 117Q575 117 636 148Q697 180 738 228Q778 276 798 334Q818 392 818 445V534L628 530Q573 529 518 522Q462 514 418 490Q373 466 345 420Q317 375 317 299Q317 217 362 167Q406 117 492 117Z" fill="#AAB2D2"/><path transform="translate(1033.56,176.00) scale(0.00610,-0.00610)" d="M736 142H1116V0H134V142H556V1342H267V1484H736Z" fill="#AAB2D2"/><line x1="1180" y1="142" x2="1180" y2="158" stroke="#8E99FF" stroke-width="1.6" opacity="0.8"/><circle cx="1180" cy="142" r="2.4" fill="#8E99FF"/><path transform="translate(1124.69,176.00) scale(0.00610,-0.00610)" d="M130 542Q130 705 173 813Q216 921 286 985Q357 1049 447 1076Q537 1102 632 1102Q730 1102 807 1077Q884 1052 940 1008Q995 965 1030 906Q1065 847 1078 779L886 765Q870 856 806 908Q742 961 624 961Q538 961 480 934Q421 906 386 854Q350 801 334 724Q319 646 319 546Q319 446 334 366Q350 287 386 232Q421 177 480 148Q538 119 623 119Q731 119 802 172Q873 225 890 334L1080 322Q1071 255 1037 193Q1003 131 946 84Q889 37 810 8Q731 -20 631 -20Q494 -20 398 23Q303 66 244 142Q184 217 157 320Q130 422 130 542Z" fill="#AAB2D2"/><path transform="translate(1132.59,176.00) scale(0.00610,-0.00610)" d="M1097 542Q1097 400 1064 294Q1030 189 967 119Q904 49 814 14Q723 -20 609 -20Q500 -20 412 14Q323 48 260 118Q198 188 164 294Q130 399 130 542Q130 821 256 962Q383 1102 615 1102Q859 1102 978 963Q1097 824 1097 542ZM908 542Q908 668 886 750Q865 832 826 881Q788 930 735 950Q682 969 618 969Q553 969 498 948Q443 928 404 878Q364 829 342 747Q319 665 319 542Q319 416 342 334Q366 251 406 202Q445 153 498 133Q550 113 607 113Q672 113 728 132Q783 152 823 201Q863 250 886 333Q908 416 908 542Z" fill="#AAB2D2"/><path transform="translate(1140.49,176.00) scale(0.00610,-0.00610)" d="M531 0V686Q531 765 525 818Q519 871 506 904Q492 936 470 950Q449 963 417 963Q384 963 358 938Q332 912 313 866Q294 819 284 754Q274 688 274 607V0H105V851Q105 885 104 922Q104 960 103 994Q102 1027 101 1051Q100 1075 99 1082H248Q249 1077 250 1056Q251 1036 252 1010Q253 983 254 955Q254 927 254 907H256Q269 946 287 982Q305 1017 330 1044Q356 1071 391 1086Q426 1102 472 1102Q560 1102 604 1054Q647 1006 666 906H668Q686 953 708 990Q729 1026 757 1051Q785 1076 821 1089Q857 1102 904 1102Q965 1102 1007 1080Q1049 1058 1075 1012Q1101 966 1112 894Q1124 822 1124 721V0H956V686Q956 765 950 818Q944 871 930 904Q917 936 896 950Q874 963 842 963Q776 963 738 879Q699 795 699 627V0Z" fill="#AAB2D2"/><path transform="translate(1148.40,176.00) scale(0.00610,-0.00610)" d="M1090 546Q1090 423 1070 319Q1050 215 1004 140Q958 65 883 22Q808 -20 698 -20Q643 -20 593 -10Q543 0 500 22Q457 44 424 79Q390 114 367 164H362Q363 162 364 146Q364 131 364 108Q365 85 366 56Q366 27 366 -2V-425H185V858Q185 898 184 935Q184 972 183 1002Q182 1031 181 1052Q180 1073 179 1082H354Q355 1079 356 1060Q358 1042 360 1016Q361 990 362 960Q364 930 364 904H368Q393 956 424 994Q456 1032 496 1056Q536 1081 586 1092Q636 1104 698 1104Q808 1104 883 1064Q958 1024 1004 950Q1050 877 1070 774Q1090 671 1090 546ZM904 546Q904 646 892 724Q880 802 850 856Q821 909 772 937Q724 965 651 965Q592 965 540 946Q488 928 450 880Q411 831 388 745Q366 659 366 524Q366 409 384 330Q403 252 439 204Q475 155 528 134Q581 113 649 113Q722 113 771 142Q820 170 850 225Q879 280 892 361Q904 442 904 546Z" fill="#AAB2D2"/><path transform="translate(1156.30,176.00) scale(0.00610,-0.00610)" d="M365 1082V396Q365 317 376 264Q388 211 414 178Q441 146 484 132Q526 119 589 119Q653 119 704 142Q756 164 792 206Q829 249 848 312Q868 374 868 455V1082H1049V231Q1049 197 1050 160Q1050 122 1051 88Q1052 55 1053 31Q1054 7 1055 0H885Q884 5 883 27Q882 49 880 78Q879 106 878 136Q877 165 877 185H874Q848 138 817 100Q786 62 745 36Q704 9 651 -6Q598 -20 528 -20Q438 -20 373 2Q308 24 266 70Q224 116 204 188Q185 261 185 361V1082Z" fill="#AAB2D2"/><path transform="translate(1164.20,176.00) scale(0.00610,-0.00610)" d="M190 940V1082H360L418 1364H538V1082H970V940H538V288Q538 209 580 171Q623 133 720 133Q760 133 802 136Q845 140 884 145Q924 150 958 156Q993 162 1017 167V30Q995 24 960 16Q925 8 882 1Q838 -6 787 -11Q736 -16 682 -16Q520 -16 439 52Q358 121 358 269V940Z" fill="#AAB2D2"/><path transform="translate(1172.10,176.00) scale(0.00610,-0.00610)" d="M322 503Q322 418 341 346Q360 275 398 224Q436 172 492 144Q549 115 623 115Q678 115 724 128Q771 140 808 162Q845 184 870 214Q895 245 907 281L1065 236Q1049 191 1017 146Q985 100 932 64Q879 27 803 4Q727 -20 623 -20Q508 -20 417 16Q326 52 263 123Q200 194 166 300Q133 407 133 548Q133 704 172 810Q212 916 279 981Q346 1046 434 1074Q521 1102 617 1102Q748 1102 838 1060Q929 1018 986 942Q1043 867 1068 761Q1094 655 1094 527V503ZM619 969Q573 969 522 954Q472 940 429 903Q386 866 356 802Q327 739 324 641H908Q900 735 874 798Q848 861 810 899Q771 937 722 953Q673 969 619 969Z" fill="#AAB2D2"/><path transform="translate(1180.00,176.00) scale(0.00610,-0.00610)" d="M1045 918Q998 926 946 932Q895 937 833 937Q749 937 682 903Q615 869 569 810Q523 752 498 674Q474 596 474 508V0H294V701Q294 757 288 815Q282 873 274 924Q266 976 257 1017Q248 1058 242 1082H413Q420 1058 428 1027Q435 996 442 962Q449 929 454 895Q459 861 461 832H466Q494 894 525 944Q556 994 598 1029Q641 1064 699 1083Q757 1102 839 1102Q895 1102 949 1097Q1003 1092 1045 1085Z" fill="#AAB2D2"/><path transform="translate(1195.80,176.00) scale(0.00610,-0.00610)" d="M745 142H1125V0H143V142H565V940H246V1082H745ZM545 1292V1484H745V1292Z" fill="#AAB2D2"/><path transform="translate(1203.70,176.00) scale(0.00610,-0.00610)" d="M868 0V695Q868 775 852 826Q835 878 806 908Q776 939 736 951Q696 963 648 963Q589 963 538 940Q486 918 448 876Q409 833 387 770Q365 708 365 627V0H185V851Q185 885 184 922Q184 960 183 994Q182 1027 181 1051Q180 1075 179 1082H349Q350 1077 351 1055Q352 1033 354 1004Q355 976 356 946Q357 917 357 897H360Q384 944 416 982Q449 1020 492 1046Q534 1073 587 1088Q640 1102 706 1102Q789 1102 853 1080Q917 1058 960 1012Q1004 966 1026 894Q1049 822 1049 721V0Z" fill="#AAB2D2"/><path transform="translate(1211.60,176.00) scale(0.00610,-0.00610)" d="M1090 546Q1090 423 1070 319Q1050 215 1004 140Q958 65 883 22Q808 -20 698 -20Q643 -20 593 -10Q543 0 500 22Q457 44 424 79Q390 114 367 164H362Q363 162 364 146Q364 131 364 108Q365 85 366 56Q366 27 366 -2V-425H185V858Q185 898 184 935Q184 972 183 1002Q182 1031 181 1052Q180 1073 179 1082H354Q355 1079 356 1060Q358 1042 360 1016Q361 990 362 960Q364 930 364 904H368Q393 956 424 994Q456 1032 496 1056Q536 1081 586 1092Q636 1104 698 1104Q808 1104 883 1064Q958 1024 1004 950Q1050 877 1070 774Q1090 671 1090 546ZM904 546Q904 646 892 724Q880 802 850 856Q821 909 772 937Q724 965 651 965Q592 965 540 946Q488 928 450 880Q411 831 388 745Q366 659 366 524Q366 409 384 330Q403 252 439 204Q475 155 528 134Q581 113 649 113Q722 113 771 142Q820 170 850 225Q879 280 892 361Q904 442 904 546Z" fill="#AAB2D2"/><path transform="translate(1219.51,176.00) scale(0.00610,-0.00610)" d="M365 1082V396Q365 317 376 264Q388 211 414 178Q441 146 484 132Q526 119 589 119Q653 119 704 142Q756 164 792 206Q829 249 848 312Q868 374 868 455V1082H1049V231Q1049 197 1050 160Q1050 122 1051 88Q1052 55 1053 31Q1054 7 1055 0H885Q884 5 883 27Q882 49 880 78Q879 106 878 136Q877 165 877 185H874Q848 138 817 100Q786 62 745 36Q704 9 651 -6Q598 -20 528 -20Q438 -20 373 2Q308 24 266 70Q224 116 204 188Q185 261 185 361V1082Z" fill="#AAB2D2"/><path transform="translate(1227.41,176.00) scale(0.00610,-0.00610)" d="M190 940V1082H360L418 1364H538V1082H970V940H538V288Q538 209 580 171Q623 133 720 133Q760 133 802 136Q845 140 884 145Q924 150 958 156Q993 162 1017 167V30Q995 24 960 16Q925 8 882 1Q838 -6 787 -11Q736 -16 682 -16Q520 -16 439 52Q358 121 358 269V940Z" fill="#AAB2D2"/><g class="ind"><g transform="translate(452,150)"><path d="M0,-15 l7,-12 l-14,0 Z" fill="#FF6A3D"/><line x1="0" y1="-15" x2="0" y2="16" stroke="#FF6A3D" stroke-width="1.6"/></g></g><rect width="1280" height="182" rx="20" filter="url(#gr)" opacity="0.04"/></svg>