<svg xmlns="http://www.w3.org/2000/svg" width="1280" height="440" viewBox="0 0 1280 440"><defs><linearGradient id="sky" x1="0" y1="0" x2="0" y2="1"><stop offset="0" stop-color="#060814"/><stop offset="0.34" stop-color="#0a1430"/><stop offset="0.58" stop-color="#0b2238"/><stop offset="0.78" stop-color="#0a3146"/><stop offset="1" stop-color="#041f2c"/></linearGradient><radialGradient id="horizon" cx="0.5" cy="0.52" r="0.65"><stop offset="0" stop-color="#3a6f86" stop-opacity="0.30"/><stop offset="1" stop-color="#3a6f86" stop-opacity="0"/></radialGradient><radialGradient id="bio" cx="0.5" cy="0.5" r="0.5"><stop offset="0" stop-color="#7FE3FF"/><stop offset="0.5" stop-color="#7FE3FF" stop-opacity="0.5"/><stop offset="1" stop-color="#7FE3FF" stop-opacity="0"/></radialGradient><filter id="gr"><feTurbulence type="fractalNoise" baseFrequency="0.9" numOctaves="2" stitchTiles="stitch" result="n"/><feColorMatrix in="n" type="matrix" values="0 0 0 0 0 0 0 0 0 0 0 0 0 0 0 0 0 0 0.5 0"/></filter></defs><rect width="1280" height="440" fill="url(#sky)"/><rect width="1280" height="440" fill="url(#horizon)"/><circle cx="579" cy="148" r="1.6" fill="#e9edf6" opacity="0.25"/><circle cx="752" cy="49" r="1.1" fill="#e9edf6" opacity="0.57"/><circle cx="120" cy="80" r="0.5" fill="#e9edf6" opacity="0.59"/><circle cx="54" cy="259" r="1.7" fill="#e9edf6" opacity="0.01"/><circle cx="202" cy="4" r="1.1" fill="#bcd0ff" opacity="0.24"/><circle cx="310" cy="8" r="1.0" fill="#e9edf6" opacity="0.54"/><circle cx="664" cy="169" r="1.0" fill="#e9edf6" opacity="0.26"/><circle cx="356" cy="263" r="1.7" fill="#e9edf6" opacity="0.00"/><circle cx="404" cy="61" r="0.8" fill="#e9edf6" opacity="0.20"/><circle cx="513" cy="223" r="0.9" fill="#e9edf6" opacity="0.15"/><circle cx="1" cy="55" r="1.6" fill="#e9edf6" opacity="0.46"/><circle cx="509" cy="19" r="1.2" fill="#e9edf6" opacity="0.76"/><circle cx="112" cy="88" r="1.7" fill="#bcd0ff" opacity="0.54"/><circle cx="315" cy="27" r="0.5" fill="#bcd0ff" opacity="0.75"/><circle cx="716" cy="118" r="0.6" fill="#bcd0ff" opacity="0.43"/><circle cx="824" cy="31" r="0.9" fill="#e9edf6" opacity="0.33"/><circle cx="1243" cy="212" r="0.8" fill="#e9edf6" opacity="0.18"/><circle cx="505" cy="226" r="1.2" fill="#e9edf6" opacity="0.04"/><circle cx="273" cy="68" r="1.4" fill="#e9edf6" opacity="0.34"/><circle cx="94" cy="24" r="1.2" fill="#e9edf6" opacity="0.36"/><circle cx="476" cy="120" r="1.6" fill="#e9edf6" opacity="0.32"/><circle cx="1109" cy="48" r="0.6" fill="#e9edf6" opacity="0.76"/><circle cx="319" cy="50" r="1.4" fill="#bcd0ff" opacity="0.77"/><circle cx="1216" cy="233" r="1.2" fill="#bcd0ff" opacity="0.06"/><circle cx="50" cy="254" r="0.7" fill="#e9edf6" opacity="0.03"/><circle cx="1054" cy="157" r="0.8" fill="#e9edf6" opacity="0.14"/><circle cx="88" cy="60" r="1.1" fill="#e9edf6" opacity="0.68"/><circle cx="359" cy="242" r="0.7" fill="#e9edf6" opacity="0.02"/><circle cx="571" cy="16" r="0.6" fill="#e9edf6" opacity="0.47"/><circle cx="168" cy="96" r="1.6" fill="#e9edf6" opacity="0.63"/><circle cx="885" cy="154" r="0.6" fill="#bcd0ff" opacity="0.09"/><circle cx="1165" cy="185" r="1.7" fill="#e9edf6" opacity="0.06"/><circle cx="617" cy="193" r="0.8" fill="#bcd0ff" opacity="0.27"/><circle cx="699" cy="195" r="1.6" fill="#e9edf6" opacity="0.21"/><circle cx="1015" cy="242" r="0.9" fill="#e9edf6" opacity="0.06"/><circle cx="1115" cy="110" r="1.4" fill="#e9edf6" opacity="0.52"/><circle cx="800" cy="101" r="1.2" fill="#bcd0ff" opacity="0.42"/><circle cx="818" cy="262" r="1.5" fill="#e9edf6" opacity="0.01"/><circle cx="941" cy="153" r="1.0" fill="#bcd0ff" opacity="0.36"/><circle cx="960" cy="8" r="1.2" fill="#e9edf6" opacity="0.57"/><circle cx="894" cy="131" r="1.2" fill="#e9edf6" opacity="0.47"/><circle cx="14" cy="79" r="1.3" fill="#bcd0ff" opacity="0.25"/><circle cx="1159" cy="174" r="1.0" fill="#e9edf6" opacity="0.31"/><circle cx="852" cy="52" r="1.0" fill="#e9edf6" opacity="0.68"/><circle cx="1127" cy="101" r="1.2" fill="#bcd0ff" opacity="0.28"/><circle cx="635" cy="221" r="1.5" fill="#e9edf6" opacity="0.13"/><circle cx="354" cy="45" r="1.0" fill="#e9edf6" opacity="0.35"/><circle cx="530" cy="165" r="1.0" fill="#e9edf6" opacity="0.17"/><circle cx="1257" cy="119" r="0.5" fill="#e9edf6" opacity="0.12"/><circle cx="53" cy="187" r="1.1" fill="#e9edf6" opacity="0.13"/><circle cx="24" cy="36" r="1.0" fill="#e9edf6" opacity="0.19"/><circle cx="304" cy="37" r="0.5" fill="#e9edf6" opacity="0.60"/><circle cx="806" cy="173" r="1.4" fill="#e9edf6" opacity="0.33"/><circle cx="255" cy="125" r="0.6" fill="#e9edf6" opacity="0.11"/><circle cx="914" cy="47" r="0.8" fill="#e9edf6" opacity="0.39"/><circle cx="666" cy="162" r="1.4" fill="#e9edf6" opacity="0.20"/><circle cx="1160" cy="23" r="1.6" fill="#bcd0ff" opacity="0.71"/><circle cx="581" cy="165" r="1.6" fill="#e9edf6" opacity="0.19"/><circle cx="1126" cy="210" r="1.6" fill="#e9edf6" opacity="0.12"/><circle cx="262" cy="191" r="1.5" fill="#e9edf6" opacity="0.20"/><circle cx="273" cy="238" r="1.7" fill="#e9edf6" opacity="0.10"/><circle cx="1012" cy="85" r="1.6" fill="#e9edf6" opacity="0.60"/><circle cx="106" cy="116" r="1.1" fill="#e9edf6" opacity="0.46"/><circle cx="36" cy="214" r="0.5" fill="#bcd0ff" opacity="0.16"/><circle cx="429" cy="208" r="0.6" fill="#e9edf6" opacity="0.07"/><circle cx="926" cy="222" r="1.3" fill="#e9edf6" opacity="0.15"/><circle cx="1215" cy="23" r="0.7" fill="#e9edf6" opacity="0.57"/><circle cx="933" cy="169" r="1.1" fill="#e9edf6" opacity="0.32"/><circle cx="399" cy="101" r="1.5" fill="#e9edf6" opacity="0.57"/><circle cx="1089" cy="256" r="1.1" fill="#e9edf6" opacity="0.02"/><circle cx="686" cy="133" r="1.2" fill="#e9edf6" opacity="0.11"/><circle cx="661" cy="106" r="1.4" fill="#e9edf6" opacity="0.39"/><circle cx="884" cy="17" r="1.1" fill="#e9edf6" opacity="0.50"/><circle cx="1182" cy="71" r="1.0" fill="#e9edf6" opacity="0.22"/><circle cx="1044" cy="238" r="1.0" fill="#bcd0ff" opacity="0.05"/><circle cx="791" cy="244" r="0.6" fill="#bcd0ff" opacity="0.06"/><circle cx="248" cy="60" r="1.3" fill="#e9edf6" opacity="0.35"/><circle cx="793" cy="28" r="1.4" fill="#e9edf6" opacity="0.27"/><circle cx="321" cy="52" r="1.1" fill="#e9edf6" opacity="0.44"/><circle cx="529" cy="140" r="0.6" fill="#e9edf6" opacity="0.17"/><circle cx="817" cy="140" r="1.5" fill="#e9edf6" opacity="0.32"/><circle cx="298" cy="196" r="1.5" fill="#e9edf6" opacity="0.24"/><circle cx="403" cy="244" r="0.7" fill="#e9edf6" opacity="0.08"/><circle cx="171" cy="63" r="1.3" fill="#bcd0ff" opacity="0.31"/><circle cx="1065" cy="111" r="1.4" fill="#e9edf6" opacity="0.17"/><circle cx="877" cy="5" r="0.7" fill="#e9edf6" opacity="0.73"/><circle cx="1240" cy="30" r="1.1" fill="#e9edf6" opacity="0.71"/><circle cx="878" cy="50" r="0.5" fill="#bcd0ff" opacity="0.23"/><circle cx="706" cy="136" r="1.1" fill="#bcd0ff" opacity="0.15"/><circle cx="261" cy="222" r="1.7" fill="#bcd0ff" opacity="0.15"/><circle cx="79" cy="251" r="1.0" fill="#e9edf6" opacity="0.04"/><circle cx="598" cy="136" r="1.0" fill="#bcd0ff" opacity="0.33"/><circle cx="897" cy="223" r="0.6" fill="#e9edf6" opacity="0.09"/><circle cx="519" cy="52" r="0.6" fill="#bcd0ff" opacity="0.49"/><circle cx="1143" cy="212" r="1.3" fill="#e9edf6" opacity="0.18"/><circle cx="518" cy="158" r="1.1" fill="#e9edf6" opacity="0.39"/><circle cx="331" cy="241" r="1.4" fill="#e9edf6" opacity="0.07"/><circle cx="519" cy="237" r="1.5" fill="#e9edf6" opacity="0.08"/><circle cx="979" cy="107" r="1.3" fill="#e9edf6" opacity="0.15"/><circle cx="600" cy="3" r="0.9" fill="#e9edf6" opacity="0.70"/><circle cx="297" cy="249" r="1.3" fill="#e9edf6" opacity="0.03"/><circle cx="729" cy="141" r="0.9" fill="#e9edf6" opacity="0.47"/><circle cx="898" cy="201" r="1.7" fill="#e9edf6" opacity="0.05"/><circle cx="946" cy="68" r="0.9" fill="#bcd0ff" opacity="0.18"/><circle cx="481" cy="26" r="0.7" fill="#e9edf6" opacity="0.83"/><circle cx="650" cy="255" r="1.1" fill="#e9edf6" opacity="0.03"/><circle cx="1036" cy="20" r="1.2" fill="#bcd0ff" opacity="0.75"/><circle cx="1191" cy="42" r="1.0" fill="#e9edf6" opacity="0.28"/><circle cx="782" cy="15" r="1.6" fill="#e9edf6" opacity="0.51"/><circle cx="765" cy="97" r="0.8" fill="#e9edf6" opacity="0.46"/><circle cx="363" cy="189" r="0.8" fill="#e9edf6" opacity="0.06"/><circle cx="55" cy="41" r="1.4" fill="#e9edf6" opacity="0.43"/><circle cx="958" cy="13" r="1.7" fill="#bcd0ff" opacity="0.91"/><circle cx="1159" cy="113" r="1.0" fill="#e9edf6" opacity="0.56"/><circle cx="670" cy="247" r="1.3" fill="#e9edf6" opacity="0.04"/><circle cx="1045" cy="159" r="0.5" fill="#e9edf6" opacity="0.28"/><circle cx="261" cy="14" r="1.1" fill="#e9edf6" opacity="0.28"/><circle cx="855" cy="120" r="0.7" fill="#e9edf6" opacity="0.36"/><circle cx="996" cy="140" r="1.7" fill="#e9edf6" opacity="0.45"/><circle cx="305" cy="30" r="1.6" fill="#e9edf6" opacity="0.73"/><circle cx="460" cy="72" r="1.3" fill="#e9edf6" opacity="0.47"/><circle cx="810" cy="199" r="0.6" fill="#e9edf6" opacity="0.10"/><circle cx="1172" cy="232" r="0.5" fill="#e9edf6" opacity="0.03"/><circle cx="544" cy="165" r="0.5" fill="#bcd0ff" opacity="0.24"/><circle cx="111" cy="179" r="1.1" fill="#e9edf6" opacity="0.23"/><circle cx="613" cy="56" r="0.8" fill="#e9edf6" opacity="0.63"/><circle cx="95" cy="32" r="1.5" fill="#e9edf6" opacity="0.62"/><circle cx="273" cy="112" r="0.7" fill="#e9edf6" opacity="0.49"/><circle cx="837" cy="261" r="0.8" fill="#e9edf6" opacity="0.01"/><circle cx="1179" cy="113" r="0.9" fill="#e9edf6" opacity="0.16"/><circle cx="100" cy="22" r="1.1" fill="#e9edf6" opacity="0.54"/><circle cx="383" cy="205" r="0.5" fill="#e9edf6" opacity="0.08"/><circle cx="105" cy="80" r="1.3" fill="#e9edf6" opacity="0.53"/><circle cx="183" cy="94" r="1.3" fill="#bcd0ff" opacity="0.32"/><circle cx="908" cy="150" r="1.6" fill="#e9edf6" opacity="0.41"/><circle cx="561" cy="212" r="0.8" fill="#e9edf6" opacity="0.09"/><circle cx="1196" cy="236" r="0.7" fill="#e9edf6" opacity="0.05"/><circle cx="465" cy="104" r="0.9" fill="#e9edf6" opacity="0.22"/><circle cx="1020" cy="143" r="1.5" fill="#bcd0ff" opacity="0.30"/><circle cx="971" cy="233" r="0.8" fill="#e9edf6" opacity="0.03"/><circle cx="697" cy="150" r="1.7" fill="#e9edf6" opacity="0.31"/><circle cx="82" cy="144" r="1.4" fill="#bcd0ff" opacity="0.12"/><circle cx="943" cy="237" r="0.5" fill="#bcd0ff" opacity="0.07"/><circle cx="955" cy="171" r="0.7" fill="#e9edf6" opacity="0.13"/><circle cx="668" cy="202" r="0.9" fill="#e9edf6" opacity="0.11"/><circle cx="861" cy="130" r="1.1" fill="#e9edf6" opacity="0.39"/><circle cx="1171" cy="108" r="1.5" fill="#e9edf6" opacity="0.43"/><circle cx="1032" cy="220" r="1.6" fill="#e9edf6" opacity="0.16"/><circle cx="671" cy="187" r="1.4" fill="#e9edf6" opacity="0.16"/><circle cx="187" cy="196" r="1.7" fill="#bcd0ff" opacity="0.13"/><path d="M270,120 L272,139 L255,148 L239,139 L227,128 L227,112 L237,97 L255,92 L265,108 Z" fill="#171c2b" stroke="#39405a" stroke-width="1.2"/><path d="M264,120 L260,128 L252,134 L244,130 L235,125 L235,115 L243,107 L252,109 L261,111 Z" fill="#1d2438" opacity="0.7"/><path d="M1061,80 L1056,94 L1042,93 L1033,92 L1021,87 L1022,73 L1031,64 L1043,65 L1054,68 Z" fill="#171c2b" stroke="#39405a" stroke-width="1.2"/><path d="M1049,80 L1047,86 L1042,91 L1035,88 L1031,83 L1031,77 L1036,73 L1042,71 L1048,74 Z" fill="#1d2438" opacity="0.7"/><path d="M730,150 L729,157 L722,160 L714,160 L709,154 L712,147 L716,143 L722,137 L728,144 Z" fill="#171c2b" stroke="#39405a" stroke-width="1.2"/><path d="M726,150 L725,154 L721,157 L717,154 L716,152 L714,148 L717,145 L721,143 L725,146 Z" fill="#1d2438" opacity="0.7"/><polygon points="156,198 248,198 378,440 82,440" fill="#7fd0e0" opacity="0.05"/><polygon points="400,198 475,198 582,440 339,440" fill="#7fd0e0" opacity="0.05"/><polygon points="626,198 703,198 810,440 565,440" fill="#7fd0e0" opacity="0.05"/><polygon points="894,198 967,198 1068,440 836,440" fill="#7fd0e0" opacity="0.05"/><polygon points="1129,198 1202,198 1304,440 1071,440" fill="#7fd0e0" opacity="0.05"/><circle cx="879" cy="309" r="1.4" fill="#a9f0ea" opacity="0.31"/><circle cx="78" cy="423" r="8" fill="url(#bio)" opacity="0.5"/><circle cx="78" cy="423" r="1.6" fill="#a9f0ea" opacity="0.79"/><circle cx="1212" cy="264" r="7" fill="url(#bio)" opacity="0.5"/><circle cx="1212" cy="264" r="1.5" fill="#a9f0ea" opacity="0.46"/><circle cx="795" cy="274" r="10" fill="url(#bio)" opacity="0.5"/><circle cx="795" cy="274" r="1.9" fill="#a9f0ea" opacity="0.39"/><circle cx="1044" cy="321" r="1.5" fill="#a9f0ea" opacity="0.54"/><circle cx="492" cy="248" r="2.0" fill="#a9f0ea" opacity="0.79"/><circle cx="849" cy="313" r="1.4" fill="#a9f0ea" opacity="0.64"/><circle cx="146" cy="289" r="1.4" fill="#a9f0ea" opacity="0.71"/><circle cx="640" cy="248" r="2.1" fill="#a9f0ea" opacity="0.56"/><circle cx="284" cy="327" r="1.4" fill="#a9f0ea" opacity="0.35"/><circle cx="704" cy="277" r="10" fill="url(#bio)" opacity="0.5"/><circle cx="704" cy="277" r="1.9" fill="#a9f0ea" opacity="0.44"/><circle cx="441" cy="368" r="0.9" fill="#a9f0ea" opacity="0.40"/><circle cx="361" cy="336" r="2.3" fill="#a9f0ea" opacity="0.78"/><circle cx="214" cy="425" r="7" fill="url(#bio)" opacity="0.5"/><circle cx="214" cy="425" r="1.4" fill="#a9f0ea" opacity="0.67"/><circle cx="1167" cy="243" r="1.2" fill="#a9f0ea" opacity="0.47"/><circle cx="309" cy="244" r="0.9" fill="#a9f0ea" opacity="0.79"/><circle cx="1278" cy="342" r="0.8" fill="#a9f0ea" opacity="0.69"/><circle cx="1065" cy="369" r="1.2" fill="#a9f0ea" opacity="0.54"/><circle cx="803" cy="294" r="2.3" fill="#a9f0ea" opacity="0.38"/><circle cx="373" cy="415" r="1.2" fill="#a9f0ea" opacity="0.56"/><circle cx="891" cy="382" r="1.1" fill="#a9f0ea" opacity="0.43"/><circle cx="875" cy="379" r="1.0" fill="#a9f0ea" opacity="0.51"/><path d="M85,440 Q112,408 119,398 Q137,365 128,355 Q130,323 104,313 Q97,281 66,271 Q62,239 42,229 Q52,196 51,186 " fill="none" stroke="#0c3a3a" stroke-width="9" stroke-linecap="round" opacity="0.55"/><path d="M85,440 Q112,408 119,398 Q137,365 128,355 Q130,323 104,313 Q97,281 66,271 Q62,239 42,229 Q52,196 51,186 " fill="none" stroke="#1b6a5e" stroke-width="2" stroke-linecap="round" opacity="0.4"/><path d="M230,440 Q260,402 249,392 Q255,355 237,345 Q238,307 219,297 Q223,259 209,249 Q220,212 215,202 Q232,164 232,154 " fill="none" stroke="#0c3a3a" stroke-width="7" stroke-linecap="round" opacity="0.55"/><path d="M230,440 Q260,402 249,392 Q255,355 237,345 Q238,307 219,297 Q223,259 209,249 Q220,212 215,202 Q232,164 232,154 " fill="none" stroke="#1b6a5e" stroke-width="2" stroke-linecap="round" opacity="0.4"/><path d="M378,440 Q419,411 389,401 Q380,371 349,361 Q347,332 331,322 Q344,292 348,282 Q375,253 388,243 Q415,213 420,203 " fill="none" stroke="#0c3a3a" stroke-width="5" stroke-linecap="round" opacity="0.55"/><path d="M378,440 Q419,411 389,401 Q380,371 349,361 Q347,332 331,322 Q344,292 348,282 Q375,253 388,243 Q415,213 420,203 " fill="none" stroke="#1b6a5e" stroke-width="2" stroke-linecap="round" opacity="0.4"/><path d="M499,440 Q499,423 474,413 Q475,395 463,385 Q477,368 479,358 Q502,340 510,330 Q533,313 533,303 Q545,286 530,276 " fill="none" stroke="#0c3a3a" stroke-width="7" stroke-linecap="round" opacity="0.55"/><path d="M499,440 Q499,423 474,413 Q475,395 463,385 Q477,368 479,358 Q502,340 510,330 Q533,313 533,303 Q545,286 530,276 " fill="none" stroke="#1b6a5e" stroke-width="2" stroke-linecap="round" opacity="0.4"/><path d="M621,440 Q604,423 593,413 Q607,397 607,387 Q628,370 632,360 Q651,344 648,334 Q659,317 643,307 Q645,291 621,281 " fill="none" stroke="#0c3a3a" stroke-width="9" stroke-linecap="round" opacity="0.55"/><path d="M621,440 Q604,423 593,413 Q607,397 607,387 Q628,370 632,360 Q651,344 648,334 Q659,317 643,307 Q645,291 621,281 " fill="none" stroke="#1b6a5e" stroke-width="2" stroke-linecap="round" opacity="0.4"/><path d="M791,440 Q767,425 774,415 Q801,400 812,390 Q835,376 834,366 Q843,351 823,341 Q819,326 787,316 Q781,301 754,291 " fill="none" stroke="#0c3a3a" stroke-width="6" stroke-linecap="round" opacity="0.55"/><path d="M791,440 Q767,425 774,415 Q801,400 812,390 Q835,376 834,366 Q843,351 823,341 Q819,326 787,316 Q781,301 754,291 " fill="none" stroke="#1b6a5e" stroke-width="2" stroke-linecap="round" opacity="0.4"/><path d="M925,440 Q937,426 936,416 Q952,402 945,392 Q954,379 938,369 Q941,355 921,345 Q924,331 907,321 Q915,307 906,297 " fill="none" stroke="#0c3a3a" stroke-width="8" stroke-linecap="round" opacity="0.55"/><path d="M925,440 Q937,426 936,416 Q952,402 945,392 Q954,379 938,369 Q941,355 921,345 Q924,331 907,321 Q915,307 906,297 " fill="none" stroke="#1b6a5e" stroke-width="2" stroke-linecap="round" opacity="0.4"/><path d="M1048,440 Q1103,424 1098,414 Q1103,397 1077,387 Q1069,371 1035,361 Q1027,344 1003,334 Q1009,318 1005,308 Q1028,291 1040,281 " fill="none" stroke="#0c3a3a" stroke-width="8" stroke-linecap="round" opacity="0.55"/><path d="M1048,440 Q1103,424 1098,414 Q1103,397 1077,387 Q1069,371 1035,361 Q1027,344 1003,334 Q1009,318 1005,308 Q1028,291 1040,281 " fill="none" stroke="#1b6a5e" stroke-width="2" stroke-linecap="round" opacity="0.4"/><path d="M1192,440 Q1232,401 1210,391 Q1206,352 1178,342 Q1176,303 1157,293 Q1166,255 1162,245 Q1182,206 1189,196 Q1213,157 1218,147 " fill="none" stroke="#0c3a3a" stroke-width="8" stroke-linecap="round" opacity="0.55"/><path d="M1192,440 Q1232,401 1210,391 Q1206,352 1178,342 Q1176,303 1157,293 Q1166,255 1162,245 Q1182,206 1189,196 Q1213,157 1218,147 " fill="none" stroke="#1b6a5e" stroke-width="2" stroke-linecap="round" opacity="0.4"/><line x1="640" y1="20" x2="640" y2="420" stroke="#7FE3FF" stroke-width="1" stroke-dasharray="2 10" opacity="0.18"/><rect width="1280" height="440" filter="url(#gr)" opacity="0.04"/></svg>