<svg xmlns="http://www.w3.org/2000/svg" width="1280" height="440" viewBox="0 0 1280 440" role="img" aria-label="The Pressing — a single flower of light mid-bloom in a warm dark room">
<defs>
<radialGradient id="pwarm" cx="50%" cy="100%" r="80%"><stop offset="0" stop-color="#cf7a30" stop-opacity=".4"/><stop offset=".5" stop-color="#cf7a30" stop-opacity=".12"/><stop offset="1" stop-color="#cf7a30" stop-opacity="0"/></radialGradient>
<radialGradient id="pglow" cx="50%" cy="50%" r="50%"><stop offset="0" stop-color="#ffce8a" stop-opacity=".5"/><stop offset="1" stop-color="#ffce8a" stop-opacity="0"/></radialGradient>
</defs>
<rect width="1280" height="440" fill="#14100a"/>
<rect width="1280" height="440" fill="url(#pwarm)"/>
<circle cx="640" cy="240" r="200" fill="url(#pglow)"/>
<g transform="translate(640,240)">
<g fill="#e8a0c0" fill-opacity=".88" stroke="#fff" stroke-opacity=".14">
<path d="M0 -6 C -34 -52 -22 -118 0 -132 C 22 -118 34 -52 0 -6 Z"/>
<path d="M0 -6 C -34 -52 -22 -118 0 -132 C 22 -118 34 -52 0 -6 Z" transform="rotate(45)"/>
<path d="M0 -6 C -34 -52 -22 -118 0 -132 C 22 -118 34 -52 0 -6 Z" transform="rotate(90)"/>
<path d="M0 -6 C -34 -52 -22 -118 0 -132 C 22 -118 34 -52 0 -6 Z" transform="rotate(135)"/>
<path d="M0 -6 C -34 -52 -22 -118 0 -132 C 22 -118 34 -52 0 -6 Z" transform="rotate(180)"/>
<path d="M0 -6 C -34 -52 -22 -118 0 -132 C 22 -118 34 -52 0 -6 Z" transform="rotate(225)"/>
<path d="M0 -6 C -34 -52 -22 -118 0 -132 C 22 -118 34 -52 0 -6 Z" transform="rotate(270)"/>
<path d="M0 -6 C -34 -52 -22 -118 0 -132 C 22 -118 34 -52 0 -6 Z" transform="rotate(315)"/>
</g>
<g fill="#f4c0d8" fill-opacity=".4">
<path d="M0 -4 C -18 -28 -12 -62 0 -70 C 12 -62 18 -28 0 -4 Z" transform="rotate(22)"/>
<path d="M0 -4 C -18 -28 -12 -62 0 -70 C 12 -62 18 -28 0 -4 Z" transform="rotate(67)"/>
<path d="M0 -4 C -18 -28 -12 -62 0 -70 C 12 -62 18 -28 0 -4 Z" transform="rotate(112)"/>
<path d="M0 -4 C -18 -28 -12 -62 0 -70 C 12 -62 18 -28 0 -4 Z" transform="rotate(157)"/>
<path d="M0 -4 C -18 -28 -12 -62 0 -70 C 12 -62 18 -28 0 -4 Z" transform="rotate(202)"/>
<path d="M0 -4 C -18 -28 -12 -62 0 -70 C 12 -62 18 -28 0 -4 Z" transform="rotate(247)"/>
<path d="M0 -4 C -18 -28 -12 -62 0 -70 C 12 -62 18 -28 0 -4 Z" transform="rotate(292)"/>
<path d="M0 -4 C -18 -28 -12 -62 0 -70 C 12 -62 18 -28 0 -4 Z" transform="rotate(337)"/>
</g>
<g stroke="#ffe2a0" stroke-width="1.4" stroke-opacity=".9">
<line x1="0" y1="0" x2="14" y2="-26"/><line x1="0" y1="0" x2="-16" y2="-22"/><line x1="0" y1="0" x2="24" y2="-8"/><line x1="0" y1="0" x2="-24" y2="-4"/><line x1="0" y1="0" x2="8" y2="-30"/><line x1="0" y1="0" x2="-6" y2="-28"/>
</g>
<circle r="14" fill="#ffd9a0"/>
</g>
<text x="640" y="412" font-family="Space Mono, monospace" font-size="15" fill="#6f6052" text-anchor="middle" letter-spacing="2">sixty seconds · once a day · yours to keep</text>
</svg>
